<svg width="42" height="42" viewBox="0 0 42 42" fill="none" xmlns="http://www.w3.org/2000/svg">
<g clip-path="url(#clip0_999_190)">
<path d="M4.0461 23.1005L4.0216 23.118L3.9971 23.132C3.50557 23.4534 2.93398 23.631 2.34685 23.6447C1.5506 23.6255 1.2601 23.3455 1.2426 22.5755C1.2601 21.6935 1.5541 21.4205 2.54985 21.3592L3.9236 21.2945L3.98485 21.291H4.04435L4.0461 23.1005ZM6.54685 23.5345C6.52812 23.4647 6.48659 23.4032 6.42888 23.3598C6.37116 23.3163 6.30058 23.2935 6.22835 23.2948C6.18596 23.2962 6.14379 23.3014 6.10235 23.3105C5.8906 23.363 5.7716 23.377 5.60885 23.3892C5.29735 23.4032 5.24135 23.2825 5.22385 22.9342V18.1532C5.21858 18.0976 5.20225 18.0435 5.1758 17.9942C5.14936 17.9449 5.11334 17.9014 5.06985 17.8662L5.0401 17.8452C5.03077 17.8371 5.0191 17.8289 5.0051 17.8207C4.7461 17.6685 4.3156 17.546 3.9481 17.4532L3.92185 17.4445C3.25856 17.2867 2.57308 17.2441 1.89535 17.3185C1.68535 17.3395 1.12185 17.4322 0.932849 17.497C0.876849 17.5145 0.700099 17.6002 0.693099 17.7682C0.696599 17.8557 0.794599 18.1357 0.794599 18.1357C0.859349 18.33 0.927599 18.3772 1.0501 18.4035C1.14985 18.414 1.3651 18.3685 1.50685 18.3457C2.03749 18.2347 2.58329 18.2157 3.12035 18.2897C3.7451 18.386 3.98485 18.5785 3.98485 18.5785V20.4335L3.9306 20.4352L2.5971 20.4702C0.812099 20.5262 -0.0104008 21.2332 9.92323e-05 22.6577C-0.00165077 23.3052 0.201349 23.825 0.586349 24.1593C0.945099 24.4743 1.47185 24.6423 2.10535 24.6423H2.1071C2.82471 24.6467 3.52058 24.3962 4.0706 23.9353L4.12835 23.8898L4.1581 23.9563C4.22393 24.1107 4.32527 24.2475 4.4539 24.3554C4.58252 24.4634 4.7348 24.5395 4.89835 24.5775C5.13374 24.6371 5.37769 24.6555 5.61935 24.6318C5.8241 24.6038 6.0936 24.567 6.3946 24.4253C6.56085 24.3465 6.6781 24.2502 6.66935 24.0753C6.64288 23.892 6.60192 23.7112 6.54685 23.5345ZM26.2536 24.609H25.6061C25.5627 24.6112 25.5193 24.6044 25.4786 24.5891C25.438 24.5737 25.4009 24.5501 25.3698 24.5197C25.3185 24.4602 25.2934 24.3751 25.2946 24.2642V18.1217C25.2899 18.0062 25.3179 17.9211 25.3786 17.8662C25.4299 17.8149 25.5069 17.7898 25.6096 17.791H26.1958C26.3061 17.791 26.3796 17.8138 26.4373 17.861C26.4951 17.9083 26.5266 17.9923 26.5248 18.0885L26.5318 18.253L26.5371 18.3912L26.6298 18.2897C26.8549 18.0359 27.1431 17.846 27.4652 17.7394C27.7872 17.6328 28.1318 17.6131 28.4638 17.6825C28.5863 17.7052 28.6318 17.8277 28.6213 17.8925C28.6213 17.924 28.6202 17.9508 28.6179 17.973L28.5199 18.5925C28.5162 18.641 28.4953 18.6865 28.461 18.7209C28.4266 18.7552 28.3811 18.7761 28.3326 18.7797C28.2769 18.7766 28.2215 18.7707 28.1663 18.7622C28.0963 18.7517 28.0176 18.7377 27.8776 18.7377C27.4226 18.7377 26.9168 19.037 26.5791 19.5043L26.5686 19.5182V24.2642C26.5686 24.3693 26.5423 24.4521 26.4898 24.5128C26.4601 24.5453 26.4234 24.5708 26.3826 24.5875C26.3417 24.6041 26.2976 24.6115 26.2536 24.609ZM22.2513 20.4528H19.2728C19.3148 18.9513 19.8871 18.3352 20.8303 18.3352C21.7473 18.3352 22.2653 18.8392 22.2653 20.017C22.2653 20.1097 22.2653 20.3425 22.2513 20.4528ZM20.8583 17.3797C19.1906 17.3797 17.9358 18.54 17.9358 21.1772C17.9358 23.5957 19.0681 24.7823 21.1996 24.7823C21.5373 24.7823 21.9381 24.7438 22.3196 24.665C22.3814 24.6533 22.4427 24.6399 22.5033 24.6248C22.7005 24.5684 22.8935 24.4982 23.0808 24.4148C23.2138 24.364 23.3171 24.2608 23.3241 24.133C23.2884 23.938 23.2416 23.7452 23.1841 23.5555C23.1316 23.4278 23.0161 23.3473 22.8988 23.3543C22.8586 23.3543 22.2863 23.4785 22.2513 23.489C21.9164 23.576 21.5719 23.6213 21.2258 23.6237C19.7103 23.6237 19.2588 22.8992 19.2588 21.4082V21.2997H23.2313C23.2883 21.2952 23.3419 21.2708 23.3829 21.2308C23.4238 21.1909 23.4494 21.1379 23.4553 21.081L23.4588 21.0285C23.4728 20.7695 23.4816 20.4948 23.4816 20.276C23.4816 18.4438 22.5943 17.3797 20.8583 17.3797ZM30.2576 27.3757H30.2138C29.9793 27.3757 29.7868 27.3583 29.5979 27.3215C29.4806 27.3005 29.4368 27.1483 29.4613 26.9418C29.4613 26.9418 29.4753 26.7213 29.5086 26.5655C29.5383 26.408 29.6136 26.3345 29.6976 26.3345H29.7221L29.7868 26.338C29.8236 26.3398 29.8778 26.3468 29.9286 26.352C30.0441 26.3643 30.1614 26.3765 30.2541 26.3765C31.0276 26.3678 31.4459 26.0843 31.7416 25.3668L32.0986 24.4952L32.1336 24.4025L32.1459 24.364L32.1336 24.3238L29.7484 18.0167C29.7371 17.9909 29.7323 17.9626 29.7343 17.9345C29.7343 17.8966 29.7466 17.8598 29.7694 17.8295C29.8003 17.8005 29.8407 17.7837 29.8831 17.7822H30.7879C30.9191 17.7822 31.0154 17.8522 31.0451 17.9537L32.6166 22.4688L32.7216 22.7732L32.8284 22.4705L34.4506 17.987C34.4633 17.9286 34.4956 17.8764 34.5421 17.8388C34.5885 17.8013 34.6464 17.7807 34.7061 17.7805H34.7131L34.7376 17.7822H35.4866C35.5473 17.7822 35.5928 17.7945 35.6231 17.819C35.6368 17.8309 35.6477 17.8457 35.6549 17.8624C35.6622 17.879 35.6657 17.8971 35.6651 17.9153C35.6641 17.9548 35.6564 17.9938 35.6423 18.0308L32.9736 25.1882C32.3926 26.7825 31.6576 27.3757 30.2576 27.3757ZM41.0079 24.5933C40.9349 24.5962 40.8626 24.5784 40.7994 24.5418C40.7362 24.5053 40.6846 24.4515 40.6508 24.3868L39.2264 22.1853L39.1756 22.1118L39.1283 22.1853L37.7038 24.3832C37.6687 24.4479 37.6165 24.5016 37.5529 24.5386C37.4894 24.5756 37.4169 24.5945 37.3434 24.5933L37.3206 24.5897H36.5594C36.5076 24.5927 36.4563 24.5779 36.4141 24.5478C36.3945 24.5306 36.379 24.5093 36.3687 24.4853C36.3584 24.4614 36.3536 24.4355 36.3546 24.4095C36.3546 24.3465 36.3773 24.28 36.4141 24.2258L38.4756 21.095L38.5001 21.0635L38.4756 21.032L36.5751 18.1025C36.5456 18.0603 36.5292 18.0104 36.5278 17.959C36.5278 17.8365 36.6399 17.7612 36.7484 17.7612H37.4623C37.6181 17.7612 37.7388 17.8277 37.7913 17.9327L39.1283 19.9627L39.1756 20.0327L39.2211 19.9627L40.5511 17.945C40.5822 17.8873 40.6288 17.8395 40.6858 17.807C40.7427 17.7745 40.8076 17.7587 40.8731 17.7612H41.6063C41.7113 17.7612 41.8286 17.8365 41.8286 17.959C41.8286 18.0022 41.8111 18.0488 41.7761 18.099L39.8773 21.032L39.8546 21.0635L39.8773 21.095L41.9336 24.2188C41.9737 24.2739 41.9968 24.3396 42.0001 24.4077C42.0016 24.4339 41.9971 24.4601 41.9872 24.4843C41.9772 24.5086 41.9618 24.5302 41.9423 24.5478C41.8986 24.5774 41.8464 24.5922 41.7936 24.5897H41.0359L41.0079 24.5933ZM10.1326 24.6108C9.7966 24.6108 9.47285 24.5565 9.1911 24.4532C8.95937 24.382 8.75012 24.2517 8.58385 24.0753C8.17785 23.629 8.14285 23.0743 8.1376 22.3428V15.3427C8.13877 15.3007 8.15335 15.2628 8.18135 15.229C8.43059 14.9524 8.74887 14.7471 9.1036 14.634C9.1246 14.627 9.14385 14.6241 9.16135 14.6252C9.22608 14.6248 9.28836 14.6499 9.3346 14.6952C9.3906 14.7536 9.41802 14.8352 9.41685 14.9402V22.3865C9.42035 22.7732 9.5131 23.0813 9.68285 23.2738C9.8281 23.4347 10.0643 23.5153 10.3636 23.5153C10.4359 23.5153 10.5199 23.5094 10.6156 23.4978C10.8081 23.4681 10.9977 23.4224 11.1826 23.3612C11.2179 23.3478 11.2551 23.3401 11.2928 23.3385C11.4118 23.3385 11.5151 23.4225 11.5553 23.5468C11.5553 23.5468 11.6603 23.9038 11.6743 24.0718C11.6831 24.2188 11.5518 24.3167 11.4311 24.3587C11.016 24.517 10.5767 24.6023 10.1326 24.6108ZM16.6723 23.5433C16.6339 23.4173 16.5306 23.3333 16.4081 23.3333C16.3704 23.3348 16.3331 23.3425 16.2978 23.356C16.0435 23.4427 15.7786 23.4945 15.5103 23.51L15.4788 23.5135C15.1697 23.5123 14.941 23.4307 14.7928 23.2685C14.6528 23.1162 14.5548 22.866 14.5478 22.4022V22.3777L14.5846 18.6922H16.0931C16.1675 18.6958 16.241 18.6756 16.3031 18.6345C16.3783 18.575 16.3906 18.477 16.3871 18.4245V17.9607C16.3883 17.8616 16.3603 17.7892 16.3031 17.7437C16.2439 17.7069 16.175 17.6887 16.1053 17.6912H14.5846V15.397C14.5846 15.2897 14.5572 15.2074 14.5023 15.1502C14.4551 15.1065 14.3935 15.0815 14.3291 15.0802C14.3128 15.0791 14.2918 15.082 14.2661 15.089C14.1786 15.1222 13.9406 15.2045 13.6816 15.3865C13.5844 15.459 13.4931 15.5392 13.4086 15.6262C13.3829 15.6573 13.3687 15.6962 13.3683 15.7365L13.3333 17.6667H12.5528C12.513 17.6652 12.4733 17.6717 12.436 17.6858C12.3987 17.7 12.3647 17.7215 12.3358 17.749C12.2833 17.8113 12.2569 17.8916 12.2623 17.973V18.3965C12.2623 18.4892 12.2606 18.568 12.3306 18.645C12.4111 18.7185 12.4881 18.7133 12.5791 18.715H13.3106L13.2406 22.1835L13.2423 22.3322C13.2458 23.0672 13.2808 23.6237 13.6886 24.0735C14.0001 24.413 14.5688 24.6073 15.2461 24.6108C15.8568 24.6108 16.3311 24.448 16.5498 24.3587C16.6653 24.3097 16.7966 24.2153 16.7913 24.07C16.7913 23.9318 16.6723 23.5433 16.6723 23.5433Z" fill="#2795D0"/>
</g>
<defs>
<clipPath id="clip0_999_190">
<rect width="42" height="42" fill="white"/>
</clipPath>
</defs>
</svg>
