<svg width="55" height="33" viewBox="0 0 55 33" fill="none" xmlns="http://www.w3.org/2000/svg">
<g clip-path="url(#clip0_999_198)">
<path d="M15.5529 11.9565C15.5529 12.6331 15.6259 13.1816 15.7533 13.5838C15.9151 14.0364 16.1098 14.4763 16.336 14.9001C16.4271 15.0464 16.4634 15.1926 16.4634 15.3207C16.4634 15.5034 16.3542 15.6863 16.1175 15.8692L14.9702 16.6371C14.8063 16.7469 14.6424 16.8016 14.4965 16.8016C14.3145 16.8016 14.1323 16.7102 13.9501 16.5456C13.7046 16.2811 13.485 15.9933 13.2946 15.6863C13.1125 15.3757 12.9303 15.028 12.73 14.6077C11.3093 16.2896 9.52457 17.1306 7.3757 17.1308C5.84602 17.1308 4.6257 16.6919 3.73324 15.8144C2.841 14.9366 2.38574 13.7665 2.38574 12.3039C2.38574 10.7499 2.93209 9.48836 4.04305 8.53762C5.15379 7.58687 6.62912 7.1115 8.50492 7.1115C9.1241 7.1115 9.76154 7.16628 10.4353 7.25774C11.1093 7.34919 11.8013 7.49542 12.5298 7.65999V6.32532C12.5298 4.93566 12.2383 3.96679 11.6737 3.39997C11.091 2.83315 10.1074 2.55879 8.70516 2.55879C8.06772 2.55879 7.41223 2.63213 6.73826 2.7967C6.0643 2.96126 5.40881 3.16228 4.77137 3.4183C4.48004 3.54621 4.26154 3.61932 4.13393 3.65599C4.00631 3.69266 3.91543 3.71077 3.8426 3.71077C3.58758 3.71077 3.46018 3.52787 3.46018 3.14395V2.24799C3.46018 1.95552 3.4967 1.73617 3.58758 1.60826C3.67867 1.48015 3.8426 1.35224 4.09762 1.22434C4.73499 0.895062 5.49983 0.620781 6.39215 0.4015C7.28482 0.163813 8.23186 0.0542448 9.23346 0.0542448C11.4008 0.0542448 12.9853 0.547735 14.0051 1.53515C15.0067 2.52234 15.5168 4.02158 15.5168 6.03285V11.9565H15.5529ZM8.15881 14.7356C8.75994 14.7356 9.37912 14.626 10.0346 14.4064C10.6903 14.1871 11.2732 13.7848 11.7647 13.2363C12.0563 12.8891 12.2748 12.5052 12.3839 12.0662C12.4933 11.6275 12.5661 11.0972 12.5661 10.4756V9.70772C12.0138 9.57285 11.4544 9.46909 10.8905 9.39691C10.3228 9.32458 9.75102 9.28792 9.17867 9.28713C7.95836 9.28713 7.06611 9.52481 6.4652 10.0185C5.86428 10.5122 5.57273 11.207 5.57273 12.121C5.57273 12.9803 5.79123 13.6203 6.24648 14.0592C6.68369 14.5162 7.32113 14.7356 8.15881 14.7356ZM22.783 16.7102C22.4552 16.7102 22.2367 16.6554 22.091 16.5273C21.9453 16.4177 21.8177 16.1617 21.7086 15.8144L17.4289 1.68138C17.3193 1.31558 17.2647 1.07789 17.2647 0.94999C17.2647 0.657519 17.4104 0.492735 17.702 0.492735H19.4867C19.8326 0.492735 20.0695 0.547735 20.1969 0.675637C20.3426 0.785421 20.452 1.04144 20.5611 1.3887L23.6207 13.4924L26.4618 1.3887C26.5529 1.02311 26.6622 0.785421 26.8077 0.675637C26.9536 0.566068 27.2086 0.492951 27.5364 0.492951H28.9933C29.3392 0.492951 29.5762 0.547735 29.7216 0.675637C29.8675 0.785421 29.9949 1.04144 30.0677 1.3887L32.9453 13.6386L36.0958 1.3887C36.2049 1.02311 36.3326 0.785421 36.46 0.675637C36.6056 0.566068 36.8424 0.492951 37.1702 0.492951H38.8638C39.1554 0.492951 39.3193 0.639186 39.3193 0.94999C39.3193 1.04144 39.3011 1.13289 39.2828 1.24246C39.2645 1.35203 39.2282 1.49848 39.1554 1.69972L34.7661 15.8326C34.657 16.1984 34.5295 16.436 34.3837 16.5456C34.238 16.6554 34.0013 16.7285 33.6919 16.7285H32.1257C31.7796 16.7285 31.5428 16.6737 31.397 16.5456C31.2513 16.4177 31.1239 16.18 31.0511 15.8144L28.228 4.02158L25.4234 15.7959C25.3326 16.1617 25.2232 16.3994 25.0775 16.5273C24.9319 16.6554 24.6769 16.7102 24.3492 16.7102H22.783ZM46.1853 17.2039C45.2383 17.2039 44.2912 17.0941 43.3807 16.8748C42.47 16.6554 41.7599 16.4175 41.2864 16.1436C40.9949 15.9788 40.7944 15.7961 40.7218 15.6315C40.651 15.4701 40.6138 15.2959 40.6125 15.1195V14.1871C40.6125 13.8032 40.7581 13.6203 41.0314 13.6203C41.1429 13.6207 41.2537 13.6393 41.3593 13.6753C41.4684 13.7119 41.6323 13.7848 41.8145 13.858C42.4577 14.1422 43.1292 14.3567 43.8177 14.4979C44.5311 14.6431 45.2571 14.7166 45.9851 14.7172C47.1323 14.7172 48.0248 14.5162 48.644 14.114C49.2631 13.7117 49.591 13.1268 49.591 12.377C49.591 11.8652 49.4271 11.4446 49.0992 11.0972C48.7714 10.7497 48.1522 10.4391 47.2599 10.1464L44.6191 9.32379C43.2896 8.90321 42.3063 8.2816 41.7052 7.45875C41.1042 6.65424 40.7946 5.7585 40.7946 4.80775C40.7946 4.03991 40.9586 3.36338 41.2864 2.77815C41.6141 2.19321 42.0513 1.68138 42.5976 1.27913C43.144 0.858539 43.7631 0.547735 44.4917 0.328382C45.22 0.109029 45.9848 0.0175781 46.7862 0.0175781C47.1869 0.0175781 47.6058 0.0359115 48.0065 0.0906958C48.4255 0.14548 48.8079 0.218598 49.1903 0.291715C49.5545 0.383166 49.9006 0.474617 50.2284 0.584402C50.5561 0.69397 50.8111 0.803611 50.9933 0.913323C51.2483 1.05977 51.4303 1.20601 51.5396 1.37058C51.6489 1.51681 51.7036 1.7179 51.7036 1.97385V2.83315C51.7036 3.21707 51.5579 3.4183 51.2846 3.4183C51.1389 3.4183 50.9022 3.34497 50.5928 3.19873C49.5544 2.72336 48.3888 2.48568 47.096 2.48568C46.0579 2.48568 45.2383 2.65024 44.6737 2.99772C44.1093 3.34497 43.8177 3.87534 43.8177 4.62485C43.8177 5.13689 43.9999 5.5756 44.3641 5.92307C44.7282 6.27054 45.4022 6.61779 46.3675 6.9286L48.9536 7.75144C50.2647 8.17203 51.2118 8.75697 51.7764 9.50648C52.341 10.256 52.6143 11.1155 52.6143 12.0662C52.6143 12.8524 52.4501 13.5655 52.1405 14.1871C51.8129 14.8087 51.3757 15.3572 50.8111 15.7961C50.2465 16.2531 49.5727 16.5823 48.7896 16.82C47.97 17.076 47.1141 17.2039 46.1853 17.2039Z" fill="#252F3E"/>
<path d="M49.6272 26.0895C43.6357 30.5324 34.9302 32.891 27.4453 32.891C16.9551 32.891 7.50326 28.9965 0.36422 22.5242C-0.200389 22.0124 0.309435 21.3177 0.983185 21.7197C8.7051 26.2176 18.23 28.9418 28.0827 28.9418C34.73 28.9418 42.033 27.5523 48.7533 24.7001C49.7549 24.2428 50.6108 25.3583 49.6272 26.0895ZM52.1224 23.2373C51.3576 22.2501 47.0594 22.7619 45.1108 22.9996C44.5279 23.0729 44.4368 22.5609 44.9651 22.177C48.3889 19.7634 54.0165 20.4584 54.672 21.2627C55.3277 22.0855 54.4898 27.735 51.2845 30.441C50.793 30.8616 50.3195 30.6422 50.538 30.0937C51.2663 28.2835 52.8873 24.2064 52.1224 23.2373Z" fill="#FF9900"/>
</g>
<defs>
<clipPath id="clip0_999_198">
<rect width="55" height="33" fill="white"/>
</clipPath>
</defs>
</svg>
