<svg width="42" height="42" viewBox="0 0 42 42" fill="none" xmlns="http://www.w3.org/2000/svg">
<path d="M25.6999 20.1473L11.1719 17.5879V36.4997C11.1717 36.7053 11.2121 36.9088 11.2908 37.0987C11.3694 37.2886 11.4848 37.4611 11.6303 37.6064C11.7757 37.7516 11.9484 37.8667 12.1385 37.945C12.3285 38.0234 12.5321 38.0634 12.7377 38.0629H37.8064C38.0122 38.0638 38.2161 38.024 38.4065 37.9458C38.5968 37.8676 38.7698 37.7526 38.9156 37.6073C39.0613 37.462 39.1769 37.2894 39.2557 37.0993C39.3346 36.9093 39.3751 36.7055 39.3749 36.4997V29.5316L25.6999 20.1473Z" fill="#185C37"/>
<path d="M25.6999 3.9375H12.7377C12.5321 3.93699 12.3285 3.97705 12.1385 4.05539C11.9484 4.13373 11.7757 4.24881 11.6303 4.39404C11.4848 4.53926 11.3694 4.71177 11.2908 4.90167C11.2121 5.09158 11.1717 5.29514 11.1719 5.50069V12.4688L25.6999 21L33.3925 23.5594L39.3749 21V12.4688L25.6999 3.9375Z" fill="#21A366"/>
<path d="M11.1719 12.4688H25.6999V21H11.1719V12.4688Z" fill="#107C41"/>
<path opacity="0.1" d="M21.5695 10.7617H11.1719V32.0898H21.5695C21.9838 32.0878 22.3806 31.9226 22.674 31.63C22.9673 31.3374 23.1335 30.941 23.1366 30.5267V12.3249C23.1335 11.9106 22.9673 11.5142 22.674 11.2216C22.3806 10.929 21.9838 10.7638 21.5695 10.7617Z" fill="black"/>
<path opacity="0.2" d="M20.7151 11.6152H11.1719V32.9434H20.7151C21.1294 32.9413 21.5262 32.7761 21.8195 32.4835C22.1129 32.1909 22.2791 31.7945 22.2822 31.3802V13.1784C22.2791 12.7641 22.1129 12.3677 21.8195 12.0751C21.5262 11.7825 21.1294 11.6173 20.7151 11.6152Z" fill="black"/>
<path opacity="0.2" d="M20.7151 11.6152H11.1719V31.2371H20.7151C21.1294 31.235 21.5262 31.0698 21.8195 30.7772C22.1129 30.4846 22.2791 30.0882 22.2822 29.6739V13.1784C22.2791 12.7641 22.1129 12.3677 21.8195 12.0751C21.5262 11.7825 21.1294 11.6173 20.7151 11.6152Z" fill="black"/>
<path opacity="0.2" d="M19.8606 11.6152H11.1719V31.2371H19.8606C20.2749 31.235 20.6718 31.0698 20.9651 30.7772C21.2584 30.4846 21.4246 30.0882 21.4278 29.6739V13.1784C21.4246 12.7641 21.2584 12.3677 20.9651 12.0751C20.6718 11.7825 20.2749 11.6173 19.8606 11.6152Z" fill="black"/>
<path d="M4.19213 11.6152H19.8608C20.2758 11.6149 20.674 11.7793 20.9679 12.0725C21.2617 12.3656 21.4272 12.7634 21.4279 13.1784V28.8208C21.4272 29.2359 21.2617 29.6337 20.9679 29.9268C20.674 30.2199 20.2758 30.3843 19.8608 30.384H4.19213C3.98647 30.3847 3.78269 30.3448 3.59251 30.2665C3.40232 30.1882 3.22946 30.0732 3.08385 29.9279C2.93825 29.7827 2.82276 29.6101 2.74401 29.4201C2.66527 29.2301 2.62483 29.0265 2.625 28.8208V13.1784C2.62483 12.9728 2.66527 12.7691 2.74401 12.5791C2.82276 12.3891 2.93825 12.2165 3.08385 12.0713C3.22946 11.9261 3.40232 11.811 3.59251 11.7327C3.78269 11.6545 3.98647 11.6146 4.19213 11.6152Z" fill="url(#paint0_linear_999_178)"/>
<path d="M7.48145 26.0826L10.7771 20.9849L7.75838 15.916H10.1826L11.8298 19.1618C11.982 19.469 12.0923 19.6973 12.1421 19.8496H12.1644C12.2721 19.6037 12.3858 19.3648 12.5057 19.133L14.2671 15.9213H16.4983L13.4021 20.9613L16.5771 26.0866H14.2028L12.2996 22.5284C12.2115 22.3753 12.1364 22.215 12.0752 22.0493H12.0437C11.9881 22.2108 11.9141 22.3654 11.8232 22.51L9.86363 26.0826H7.48145Z" fill="white"/>
<path d="M37.808 3.93751H25.7002V12.4688H39.3751V5.5007C39.3753 5.29504 39.3349 5.09136 39.2561 4.90137C39.1774 4.71138 39.0619 4.53882 38.9163 4.39357C38.7707 4.24833 38.5978 4.13328 38.4076 4.05501C38.2174 3.97675 38.0137 3.93682 37.808 3.93751Z" fill="#33C481"/>
<path d="M25.7002 21H39.3751V29.5312H25.7002V21Z" fill="#107C41"/>
<defs>
<linearGradient id="paint0_linear_999_178" x1="5.89838" y1="10.3867" x2="18.1545" y2="31.6125" gradientUnits="userSpaceOnUse">
<stop stop-color="#18884F"/>
<stop offset="0.5" stop-color="#117E43"/>
<stop offset="1" stop-color="#0B6631"/>
</linearGradient>
</defs>
</svg>
