<svg width="26" height="39" viewBox="0 0 26 39" fill="none" xmlns="http://www.w3.org/2000/svg">
<g clip-path="url(#clip0_999_192)">
<path d="M6.5 39C10.088 39 13 36.088 13 32.5V26H6.5C2.912 26 0 28.912 0 32.5C0 36.088 2.912 39 6.5 39Z" fill="#0ACF83"/>
<path d="M0 19.5C0 15.912 2.912 13 6.5 13H13V26H6.5C2.912 26 0 23.088 0 19.5Z" fill="#A259FF"/>
<path d="M0 6.5C0 2.912 2.912 0 6.5 0H13V13H6.5C2.912 13 0 10.088 0 6.5Z" fill="#F24E1E"/>
<path d="M13 0H19.5C23.088 0 26 2.912 26 6.5C26 10.088 23.088 13 19.5 13H13V0Z" fill="#FF7262"/>
<path d="M26 19.5C26 23.088 23.088 26 19.5 26C15.912 26 13 23.088 13 19.5C13 15.912 15.912 13 19.5 13C23.088 13 26 15.912 26 19.5Z" fill="#1ABCFE"/>
</g>
<defs>
<clipPath id="clip0_999_192">
<rect width="26" height="39" fill="white"/>
</clipPath>
</defs>
</svg>
