<svg width="42" height="42" viewBox="0 0 42 42" fill="none" xmlns="http://www.w3.org/2000/svg">
<path d="M28.2147 24.9626C28.422 23.236 28.36 22.9827 29.6459 23.2622L29.9724 23.2911C30.9614 23.3361 32.2552 23.132 33.0148 22.7789C34.6508 22.02 35.6208 20.7521 34.0077 21.0851C30.3278 21.8441 30.0748 20.5985 30.0748 20.5985C33.9608 14.833 35.5853 7.51454 34.1832 5.72298C30.3593 0.836545 23.7397 3.1472 23.6288 3.20725L23.5933 3.21414C22.8662 3.06287 22.0528 2.97297 21.1386 2.9582C19.4734 2.93097 18.2098 3.39493 17.2513 4.12173C17.2513 4.12173 5.44245 -0.743378 5.99173 10.24C6.10854 12.5765 9.3409 27.92 13.196 23.2855C14.605 21.5911 15.9667 20.1582 15.9667 20.1582C16.643 20.6074 17.4525 20.8364 18.3017 20.7541L18.3673 20.6983C18.3469 20.9086 18.3558 21.1143 18.3939 21.3578C17.4006 22.4679 17.6927 22.6628 15.7069 23.0713C13.6981 23.4854 14.8783 24.2223 15.6484 24.4149C16.5829 24.6489 18.7437 24.98 20.2041 22.9354L20.1461 23.1687C20.5359 23.4805 20.5093 25.4088 20.5644 26.7866C20.6195 28.1644 20.7121 29.45 20.9929 30.2087C21.2738 30.9666 21.6052 32.9193 24.2148 32.3602C26.3955 31.8923 28.0627 31.2196 28.2147 24.9626Z" fill="black"/>
<path d="M23.365 33.7218C22.2107 33.7218 21.4593 33.2755 21.0025 32.8444C20.3135 32.1943 20.0401 31.3566 19.877 30.8563L19.8065 30.6472C19.4777 29.7597 19.3665 28.4819 19.3005 26.8367C19.2908 26.5795 19.2826 26.3223 19.2759 26.065C19.2703 25.8678 19.2635 25.6204 19.2536 25.3608C18.8377 25.559 18.3963 25.6986 17.9421 25.7756C17.1283 25.9147 16.2536 25.8694 15.3414 25.6414C14.6979 25.4806 14.0292 25.1472 13.6482 24.6321C12.5375 25.6049 11.478 25.4727 10.9009 25.2804C9.88269 24.9408 8.97148 23.987 8.11475 22.3634C7.50476 21.2074 6.91447 19.7007 6.36026 17.8858C5.39558 14.725 4.78264 11.3958 4.72817 10.3032C4.55689 6.8818 5.47761 4.4353 7.46473 3.03191C10.6 0.817394 15.3496 2.11939 17.0811 2.71068C18.2443 2.00947 19.6129 1.66789 21.1597 1.69283C21.9905 1.70628 22.7813 1.77946 23.516 1.91005C24.2821 1.66921 25.7961 1.32336 27.5289 1.34469C30.7216 1.38275 33.3672 2.627 35.1795 4.94291C36.4726 6.59535 35.8334 10.0649 35.337 11.9864C34.6391 14.6885 33.4155 17.5633 31.9127 20.0655C32.3209 20.0685 32.9118 20.0193 33.7525 19.846C35.4108 19.5035 35.8955 20.3927 36.027 20.7907C36.5543 22.3877 34.2624 23.5942 33.5474 23.9259C32.6313 24.3515 31.138 24.6104 29.9147 24.5543L29.8612 24.5507L29.54 24.5225L29.5082 24.7902L29.4777 25.0524C29.3956 28.2234 28.9425 30.2315 28.0103 31.5588C27.0335 32.9497 25.6753 33.3398 24.4793 33.5961C24.1134 33.6777 23.7399 33.7198 23.365 33.7218ZM20.9362 22.1803C21.6814 22.7765 21.7467 23.8984 21.8048 25.9951C21.812 26.2566 21.8189 26.5043 21.8281 26.7357C21.8563 27.4359 21.9222 29.0758 22.1788 29.7688C22.2153 29.8666 22.2477 29.9664 22.2819 30.0714C22.568 30.9481 22.7117 31.3875 23.9491 31.1224C24.9882 30.8999 25.5221 30.7001 25.9401 30.1048C26.5478 29.2393 26.8878 27.4992 26.9501 24.9313L28.214 24.9621L26.9586 24.8115L26.9954 24.4982C27.1158 23.4652 27.2024 22.7184 27.8931 22.2249C28.447 21.8289 29.0787 21.8673 29.5817 21.9578C29.0291 21.5408 28.8762 21.0506 28.8355 20.8498L28.7302 20.3307L29.0262 19.891C30.7324 17.3592 32.1397 14.2476 32.8872 11.3538C33.655 8.38035 33.4207 6.80108 33.1868 6.50249C30.0873 2.54169 24.7116 4.17674 24.1505 4.36278L24.0554 4.41397L23.5796 4.50289L23.3358 4.45236C22.6641 4.31291 21.918 4.2358 21.1177 4.22268C19.8606 4.20168 18.8467 4.49863 18.0153 5.12961L17.4384 5.567L16.7687 5.29105C15.3387 4.70633 11.1374 3.53066 8.92062 5.10074C7.69015 5.97224 7.12972 7.68013 7.2544 10.1768C7.29542 11.0011 7.85586 14.1212 8.7792 17.1478C10.0559 21.3301 11.2162 22.7191 11.7005 22.8808C11.7848 22.9094 12.0043 22.7388 12.2225 22.4769C13.642 20.7697 14.9919 19.3466 15.0487 19.2866L15.7807 18.5165L16.6657 19.1045C17.0224 19.3417 17.4158 19.4759 17.82 19.5012L19.9309 17.7011L19.625 20.8215C19.6182 20.8918 19.6149 20.9869 19.6424 21.1641L19.7343 21.7557L19.3363 22.2013L19.2904 22.2528L20.45 22.7883L20.9362 22.1803Z" fill="black"/>
<path d="M34.009 21.0853C30.3288 21.8443 30.0758 20.5984 30.0758 20.5984C33.9614 14.8329 35.5857 7.51405 34.1839 5.72281C30.3596 0.836375 23.74 3.14736 23.6294 3.20741L23.5937 3.21364C22.8665 3.06303 22.0531 2.97313 21.1386 2.95836C19.4734 2.93113 18.2101 3.39477 17.2517 4.12156C17.2517 4.12156 5.44245 -0.743219 5.99173 10.2401C6.10854 12.5767 9.3409 27.9201 13.196 23.2857C14.605 21.5913 15.9664 20.1583 15.9664 20.1583C16.6427 20.6075 17.4522 20.8366 18.301 20.7542L18.367 20.6984C18.3466 20.9088 18.3558 21.1145 18.3932 21.358C17.4003 22.468 17.6917 22.6629 15.7065 23.0714C13.6974 23.4855 14.8777 24.2225 15.6484 24.4151C16.5826 24.6491 18.7437 24.9801 20.2038 22.9356L20.1454 23.1689C20.5346 23.4806 20.8079 25.1964 20.7619 26.7517C20.716 28.307 20.6855 29.3747 20.9923 30.2088C21.2991 31.0429 21.6046 32.9195 24.2145 32.3603C26.3952 31.8928 27.5253 30.6816 27.6828 28.6617C27.7943 27.2255 28.0467 27.4378 28.0627 26.1535L28.2655 25.5455C28.4988 23.5984 28.3026 22.9704 29.6463 23.2627L29.9727 23.2913C30.9617 23.3366 32.2558 23.1321 33.0154 22.7791C34.6515 22.0198 35.6217 20.7523 34.009 21.0853Z" fill="#336791"/>
<path d="M23.4971 32.9409C21.3213 32.9412 20.6323 31.2182 20.3501 30.5137C19.9376 29.4814 19.8484 25.4744 19.9402 22.1882C19.9464 22.0785 19.9951 21.9755 20.0759 21.9011C20.1568 21.8267 20.2635 21.7868 20.3734 21.7899C20.4832 21.793 20.5875 21.8388 20.6641 21.9176C20.7407 21.9964 20.7836 22.1019 20.7835 22.2118C20.6775 26.002 20.8282 29.4365 21.1333 30.2004C21.6101 31.3921 22.3329 32.4346 24.3775 31.9968C26.3183 31.5805 27.0451 30.8445 27.3687 28.9683C27.6174 27.5281 28.1083 23.4315 28.1686 22.623C28.1769 22.5114 28.2292 22.4078 28.314 22.3348C28.3987 22.2618 28.5089 22.2255 28.6205 22.2338C28.732 22.2421 28.8356 22.2944 28.9086 22.3791C28.9816 22.4639 29.0179 22.5741 29.0096 22.6856C28.9466 23.527 28.4577 27.616 28.1995 29.1116C27.8172 31.3281 26.8292 32.3335 24.554 32.8214C24.2069 32.8981 23.8526 32.9381 23.4971 32.9409ZM11.7007 24.5261C11.5105 24.5261 11.3217 24.495 11.1416 24.4339C9.72834 23.9624 8.38237 21.6609 7.14075 17.5928C6.19575 14.496 5.59692 11.2639 5.54442 10.2136C5.38856 7.0997 6.19082 4.89634 7.92825 3.66522C11.3657 1.22955 17.1486 3.54906 17.393 3.64881C17.4956 3.69175 17.5771 3.77347 17.6197 3.87618C17.6623 3.9789 17.6626 4.09429 17.6206 4.19724C17.5785 4.30018 17.4975 4.38235 17.3951 4.42583C17.2928 4.46932 17.1774 4.47061 17.0741 4.42942V4.42975C17.0183 4.40678 11.473 2.18538 8.4142 4.35461C6.92845 5.40822 6.24628 7.36516 6.38639 10.1719C6.43068 11.0566 6.99014 14.2115 7.94728 17.347C9.05568 20.9784 10.3173 23.2704 11.4083 23.6339C11.5793 23.6913 12.1004 23.8649 12.8459 22.9691C14.2476 21.2826 15.5355 19.9366 15.5483 19.9232C15.6267 19.8472 15.7315 19.8045 15.8407 19.8042C15.9499 19.8039 16.055 19.846 16.1338 19.9215C16.2127 19.997 16.2592 20.1002 16.2636 20.2093C16.2679 20.3184 16.2298 20.425 16.1573 20.5066C16.1445 20.5197 14.8763 21.8456 13.4942 23.5083C12.8396 24.2951 12.2119 24.5261 11.7007 24.5261ZM30.0494 20.9728C29.9729 20.9729 29.8977 20.9522 29.8321 20.9128C29.7664 20.8734 29.7127 20.8168 29.6768 20.7492C29.6409 20.6816 29.624 20.6055 29.6281 20.529C29.6322 20.4526 29.6571 20.3787 29.7 20.3153C33.628 14.4865 35.0068 7.44391 33.8258 5.93519C32.3394 4.036 30.2404 3.04375 27.5875 2.98698C25.623 2.94433 24.0615 3.44603 23.8065 3.53364L23.7426 3.55956C23.486 3.64028 23.2891 3.49952 23.2149 3.33512C23.1727 3.24094 23.1663 3.13456 23.197 3.03599C23.2277 2.93743 23.2934 2.85349 23.3816 2.79995L23.4952 2.75336L23.4896 2.755L23.4955 2.75303C23.9289 2.59455 25.5141 2.11877 27.4779 2.14141C30.4137 2.17225 32.8385 3.30461 34.4903 5.41511C35.2719 6.41392 35.2735 8.71506 34.4952 11.7282C33.7018 14.8001 32.2088 18.1021 30.3996 20.7868C30.361 20.8442 30.3089 20.8913 30.2478 20.9237C30.1868 20.9562 30.1186 20.973 30.0494 20.9728ZM30.2499 23.671C29.5792 23.671 28.9781 23.5768 28.6182 23.3609C28.248 23.1394 28.1775 22.8379 28.1683 22.6781C28.0672 20.9049 29.0457 20.5961 29.5448 20.4554C29.4752 20.3504 29.3761 20.2267 29.2741 20.099C28.983 19.7355 28.5847 19.2374 28.2776 18.4925C28.2297 18.3764 28.0787 18.1057 27.9042 17.7926C26.9582 16.0966 24.9901 12.5669 26.2544 10.7593C26.8397 9.92289 28.0046 9.59378 29.7213 9.77753C29.2163 8.23895 26.8112 3.42569 21.1051 3.33217C19.3887 3.3033 17.981 3.83125 16.9235 4.89897C14.5554 7.29067 14.6414 11.618 14.6423 11.661C14.6438 11.7163 14.6343 11.7714 14.6145 11.8231C14.5946 11.8748 14.5648 11.9221 14.5267 11.9622C14.4885 12.0024 14.4429 12.0346 14.3923 12.0571C14.3417 12.0797 14.2872 12.092 14.2319 12.0934C14.1765 12.0949 14.1214 12.0854 14.0697 12.0656C14.018 12.0457 13.9708 12.0159 13.9306 11.9778C13.8904 11.9396 13.8582 11.894 13.8357 11.8434C13.8132 11.7928 13.8008 11.7383 13.7994 11.683C13.7941 11.491 13.7055 6.95008 16.3243 4.30539C17.5499 3.0677 19.1629 2.45673 21.1189 2.48856C24.7702 2.54861 27.1199 4.40448 28.4485 5.95127C29.8962 7.63652 30.6063 9.49567 30.6647 10.1158C30.7083 10.5772 30.3772 10.6697 30.3103 10.6832L30.1584 10.6868C28.4735 10.417 27.3926 10.6041 26.9457 11.2429C25.984 12.6171 27.8458 15.9558 28.6408 17.3818C28.8439 17.7454 28.9903 18.0082 29.0572 18.1706C29.3184 18.8039 29.659 19.2295 29.9326 19.5714C30.1732 19.8723 30.3818 20.1328 30.4567 20.4393C30.4911 20.5 30.9826 21.2265 33.898 20.6247C34.6288 20.4741 35.0668 20.603 35.2007 21.0079C35.4642 21.805 33.986 22.7342 33.1676 23.1145C32.4333 23.4554 31.2629 23.671 30.2499 23.671ZM29.0093 22.6085C29.1015 22.702 29.5642 22.8628 30.5226 22.8218C31.3744 22.7851 32.2732 22.5997 32.8126 22.3496C33.5023 22.0294 33.9623 21.6714 34.2009 21.427L34.0683 21.4512C32.2042 21.8361 30.8858 21.7849 30.1499 21.2987C30.1004 21.2659 30.0527 21.2306 30.0071 21.1927C29.9274 21.2242 29.8536 21.2448 29.8011 21.2596C29.3834 21.3768 28.9515 21.4978 29.0093 22.6085ZM16.9681 24.9641C16.5051 24.9641 16.0178 24.9015 15.5201 24.7765C15.0046 24.6475 14.1351 24.2593 14.1485 23.6218C14.1633 22.9061 15.2038 22.6915 15.5959 22.6108C17.0107 22.3195 17.103 22.2026 17.5453 21.6412C17.6742 21.4775 17.8347 21.2737 18.0532 21.0293C18.378 20.666 18.7331 20.4816 19.1085 20.4816C19.3696 20.4816 19.5842 20.5705 19.7257 20.629C20.1772 20.816 20.5538 21.2681 20.7087 21.8095C20.8485 22.2978 20.7819 22.7677 20.521 23.1325C19.6653 24.3312 18.4368 24.9641 16.9681 24.9641ZM15.0594 23.6582C15.1867 23.7563 15.4413 23.8876 15.7245 23.9588C16.1557 24.0664 16.5737 24.1212 16.9681 24.1212C18.1697 24.1212 19.134 23.6234 19.8349 22.6427C19.9809 22.4379 19.9373 22.1784 19.8982 22.0415C19.8162 21.7554 19.6128 21.4952 19.4031 21.4079C19.2892 21.3607 19.1951 21.3246 19.1085 21.3246C19.0619 21.3246 18.9204 21.3246 18.6819 21.5913C18.4804 21.8164 18.3357 22.0002 18.2074 22.1626C17.6568 22.8618 17.4045 23.0991 15.7658 23.4367C15.3662 23.5194 15.1611 23.6028 15.0594 23.6582ZM18.3019 21.7131C18.2013 21.7129 18.104 21.6768 18.0276 21.6112C17.9513 21.5456 17.9009 21.4549 17.8855 21.3554C17.8747 21.2854 17.8677 21.2149 17.8645 21.1441C16.7902 21.1238 15.754 20.6631 14.9675 19.8421C13.973 18.8043 13.5202 17.3664 13.7256 15.8974C13.9487 14.302 13.8653 12.8937 13.8204 12.1371C13.8092 11.9814 13.8023 11.8255 13.7997 11.6695C13.8004 11.5363 13.803 11.1822 14.9859 10.5828C15.4065 10.3695 16.2502 9.99738 17.1715 9.90189C18.6986 9.74439 19.705 10.4243 20.0062 11.8168C20.8193 15.5771 20.0705 17.2404 19.5239 18.4548C19.4218 18.6805 19.3257 18.8945 19.2489 19.1012L19.181 19.284C18.8922 20.0583 18.6425 20.7274 18.7193 21.2275C18.7362 21.338 18.7085 21.4507 18.6424 21.5409C18.5763 21.6311 18.4771 21.6913 18.3666 21.7085L18.3019 21.7131ZM14.6456 11.786L14.6624 12.0872C14.709 12.8731 14.7956 14.3358 14.5606 16.0145C14.3913 17.226 14.7614 18.4089 15.5762 19.259C16.22 19.931 17.0678 20.3018 17.939 20.3018H17.9571C18.0548 19.8907 18.2166 19.4569 18.3908 18.9893L18.4584 18.8079C18.5454 18.5742 18.6471 18.3482 18.7547 18.109C19.281 16.9395 19.936 15.484 19.1816 11.995C19.032 11.3043 18.6697 10.9043 18.0742 10.7724C16.851 10.502 15.0282 11.4221 14.6456 11.786ZM17.1906 11.6072C17.1696 11.7561 17.4639 12.1541 17.8471 12.2073C18.2301 12.2608 18.5579 11.9497 18.5785 11.8008C18.5992 11.6518 18.3052 11.4874 17.9216 11.4339C17.5387 11.3804 17.2109 11.4579 17.1906 11.6072ZM17.9354 12.3543L17.8278 12.3468C17.5899 12.3136 17.3494 12.1637 17.185 11.9455C17.1272 11.869 17.0327 11.72 17.0514 11.5875C17.0783 11.3929 17.3152 11.2767 17.6857 11.2767C17.769 11.2767 17.8544 11.2828 17.9416 11.2948C18.1438 11.323 18.3318 11.3814 18.4706 11.4588C18.7111 11.5934 18.7288 11.743 18.718 11.8208C18.6881 12.035 18.3462 12.3543 17.9354 12.3543ZM17.3303 11.6321C17.3425 11.724 17.5699 12.0275 17.8665 12.0685L17.9351 12.0734C18.2087 12.0734 18.4135 11.8578 18.4374 11.7873C18.4122 11.7394 18.2363 11.6196 17.9023 11.5737C17.8304 11.5636 17.7579 11.5584 17.6854 11.5579C17.4714 11.5576 17.3569 11.6058 17.3303 11.6321ZM28.8544 11.303C28.8751 11.4523 28.5814 11.8503 28.1978 11.9035C27.8146 11.9566 27.4868 11.6459 27.4658 11.4966C27.4454 11.3476 27.7394 11.1832 28.1227 11.1301C28.5059 11.0763 28.8334 11.1543 28.8544 11.303ZM28.1096 11.9796C27.7404 11.9796 27.4225 11.6925 27.3962 11.5064C27.366 11.283 27.7339 11.113 28.1132 11.0605C28.197 11.0487 28.2789 11.0428 28.3589 11.0428C28.6861 11.0428 28.9027 11.1389 28.9243 11.2935C28.9384 11.3939 28.8616 11.5484 28.7291 11.6875C28.6418 11.7794 28.458 11.9386 28.208 11.973L28.1096 11.9796ZM28.3586 11.1832C28.2851 11.1832 28.2097 11.1886 28.1322 11.1993C27.7509 11.2521 27.5242 11.4054 27.535 11.4874C27.5478 11.5773 27.791 11.8391 28.1092 11.8391L28.1877 11.8336C28.3957 11.8044 28.5519 11.6688 28.6264 11.5904C28.7432 11.4674 28.7898 11.3519 28.7842 11.3122C28.7773 11.2607 28.6369 11.1832 28.3586 11.1832ZM29.4067 19.8631C29.3303 19.8631 29.2554 19.8423 29.1899 19.803C29.1244 19.7637 29.0708 19.7073 29.0349 19.6399C28.9989 19.5726 28.982 19.4967 28.9858 19.4204C28.9896 19.3441 29.014 19.2703 29.0565 19.2069C29.9543 17.8658 29.7899 16.4979 29.6311 15.1755C29.5632 14.6118 29.4933 14.0294 29.5117 13.4699C29.53 12.8947 29.6029 12.4203 29.6737 11.9609C29.7574 11.4172 29.8365 10.903 29.8037 10.2933C29.8013 10.1838 29.8416 10.0776 29.9161 9.99719C29.9906 9.91682 30.0935 9.86859 30.2029 9.8627C30.3123 9.85682 30.4198 9.89375 30.5025 9.96567C30.5852 10.0376 30.6366 10.1389 30.646 10.2481C30.6834 10.945 30.5938 11.5264 30.5072 12.0892C30.4402 12.5233 30.371 12.9722 30.3543 13.4968C30.3382 13.992 30.4015 14.518 30.4685 15.0745C30.6378 16.4811 30.8291 18.0755 29.7574 19.6758C29.676 19.7972 29.5425 19.8631 29.4067 19.8631Z" fill="white"/>
<path d="M0.930176 33.8572C1.40125 33.7804 1.87794 33.7433 2.35522 33.7463C3.08858 33.7463 3.62638 33.9169 3.96763 34.224C4.28329 34.497 4.47097 34.915 4.47097 35.4272C4.47097 35.9476 4.31708 36.3571 4.02702 36.6557C3.63458 37.0738 2.99474 37.2871 2.26958 37.2871C2.04777 37.2871 1.84302 37.2785 1.67272 37.2359V39.5396H0.930176V33.8572ZM1.67272 36.6298C1.83482 36.6725 2.03957 36.6895 2.28697 36.6895C3.18243 36.6895 3.72875 36.2544 3.72875 35.461C3.72875 34.7018 3.19129 34.3349 2.37229 34.3349C2.0481 34.3349 1.80069 34.3605 1.67272 34.3946V36.6298ZM8.96694 37.4403C8.96694 38.9674 7.90874 39.6331 6.91058 39.6331C5.79299 39.6331 4.93133 38.8141 4.93133 37.5085C4.93133 36.1265 5.83564 35.316 6.97883 35.316C8.165 35.3157 8.96694 36.1777 8.96694 37.4403ZM5.69094 37.4829C5.69094 38.3873 6.21135 39.0698 6.94504 39.0698C7.66166 39.0698 8.1988 38.3958 8.1988 37.4659C8.1988 36.7663 7.84935 35.8791 6.96177 35.8791C6.07419 35.8791 5.69094 36.6981 5.69094 37.4829ZM9.81121 38.7712C10.033 38.9162 10.4255 39.0698 10.8008 39.0698C11.3468 39.0698 11.6028 38.7968 11.6028 38.4555C11.6028 38.0972 11.3898 37.901 10.835 37.6962C10.0927 37.4318 9.74296 37.0223 9.74296 36.5274C9.74296 35.862 10.2804 35.316 11.1677 35.316C11.5857 35.316 11.9529 35.4354 12.1832 35.5719L11.9955 36.1179C11.7416 35.9615 11.4492 35.8788 11.1509 35.8791C10.7073 35.8791 10.4599 36.135 10.4599 36.4421C10.4599 36.7834 10.7076 36.9369 11.2451 37.1417C11.9617 37.4147 12.3286 37.773 12.3286 38.3873C12.3286 39.1124 11.7655 39.6243 10.7844 39.6243C10.3323 39.6243 9.91424 39.5134 9.62418 39.3428L9.81121 38.7712ZM14.1966 34.2237V35.4095H15.2712V35.9811H14.1966V38.2078C14.1966 38.7196 14.3413 39.0097 14.7597 39.0097C14.9063 39.0122 15.0527 38.995 15.1948 38.9585L15.2289 39.5216C15.0842 39.5813 14.8535 39.624 14.5638 39.624C14.214 39.624 13.9321 39.5131 13.753 39.3083C13.54 39.0865 13.4629 38.7196 13.4629 38.2334V35.9811H12.8231V35.4095H13.4629V34.4199L14.1966 34.2237ZM19.6225 35.4099C19.6051 35.7084 19.5883 36.0412 19.5883 36.5445V38.9418C19.5883 39.8888 19.4007 40.4689 18.9997 40.8275C18.5987 41.2029 18.0186 41.3223 17.4982 41.3223C17.0034 41.3223 16.4574 41.2029 16.1243 40.9811L16.312 40.4095C16.585 40.5801 17.0116 40.7337 17.5235 40.7337C18.2913 40.7337 18.8543 40.3327 18.8543 39.2919V38.8312H18.8373C18.6069 39.2151 18.1633 39.5222 17.5235 39.5222C16.4997 39.5222 15.766 38.6521 15.766 37.5085C15.766 36.1094 16.6789 35.316 17.6258 35.316C18.3428 35.316 18.7352 35.6914 18.9144 36.0326H18.9314L18.9656 35.4099H19.6225ZM18.8461 37.0393C18.8461 36.9114 18.8376 36.8004 18.8035 36.6981C18.667 36.263 18.3001 35.9047 17.7541 35.9047C17.0372 35.9047 16.5256 36.5104 16.5256 37.4659C16.5256 38.2764 16.9351 38.9503 17.7456 38.9503C18.2063 38.9503 18.6243 38.6603 18.7864 38.1825C18.8291 38.0545 18.8465 37.9095 18.8465 37.7815L18.8461 37.0393ZM20.7824 36.6981C20.7824 36.2118 20.7739 35.7938 20.7483 35.4099H21.4055L21.4308 36.2203H21.4649C21.6526 35.6658 22.1047 35.316 22.6081 35.316C22.6934 35.316 22.7528 35.3245 22.821 35.3416V36.0497C22.7371 36.0313 22.6513 36.0228 22.5654 36.0241C22.0365 36.0241 21.6608 36.4251 21.5587 36.9881C21.5376 37.1036 21.5262 37.2206 21.5246 37.3379V39.539H20.7824V36.6981ZM23.9052 37.6109C23.9222 38.6261 24.5703 39.0442 25.321 39.0442C25.8588 39.0442 26.1827 38.9503 26.4642 38.8309L26.5922 39.3684C26.3277 39.4878 25.8756 39.6243 25.2186 39.6243C23.9475 39.6243 23.1882 38.7882 23.1882 37.5427C23.1882 36.2971 23.9219 35.3157 25.1248 35.3157C26.4727 35.3157 26.8311 36.5015 26.8311 37.2608C26.8311 37.4144 26.814 37.5338 26.8055 37.6106L23.9052 37.6109ZM26.1062 37.0734C26.1144 36.5957 25.9097 35.8535 25.0654 35.8535C24.3061 35.8535 23.9734 36.553 23.9134 37.0734H26.1062Z" fill="black"/>
<path d="M27.6841 38.6349C28.0862 38.8767 28.5458 39.0064 29.015 39.0103C29.7743 39.0103 30.2179 38.6093 30.2179 38.0292C30.2179 37.4917 29.9108 37.1846 29.1344 36.886C28.196 36.5533 27.6159 36.067 27.6159 35.2565C27.6159 34.3607 28.3581 33.6953 29.4757 33.6953C30.0643 33.6953 30.4909 33.8318 30.7468 33.9768L30.5421 34.5826C30.2064 34.4024 29.8311 34.3086 29.4501 34.3096C28.6652 34.3096 28.3666 34.7788 28.3666 35.1712C28.3666 35.7087 28.7161 35.9732 29.5098 36.2803C30.4824 36.656 30.9772 37.1249 30.9772 37.9695C30.9772 38.8567 30.3203 39.6245 28.9638 39.6245C28.4093 39.6245 27.8035 39.4624 27.4961 39.2577L27.6841 38.6349ZM36.7358 40.3838C35.9941 40.1891 35.26 39.9672 34.5347 39.7184C34.4153 39.6757 34.2958 39.6331 34.1849 39.6331C32.8199 39.5819 31.6511 38.5752 31.6511 36.7239C31.6511 34.8812 32.7773 33.6953 34.33 33.6953C35.8912 33.6953 36.9067 34.9067 36.9067 36.6045C36.9067 38.0804 36.2242 39.0273 35.2687 39.3601V39.3942C35.8403 39.5392 36.4631 39.6757 36.9494 39.761L36.7358 40.3838ZM36.1215 36.6386C36.1215 35.4869 35.5247 34.3007 34.3044 34.3007C33.0503 34.3007 32.436 35.461 32.4445 36.7068C32.436 37.9268 33.11 39.0273 34.2702 39.0273C35.4564 39.0273 36.1215 37.9524 36.1215 36.6386ZM37.8701 33.7892H38.6126V38.9164H41.0696V39.5392H37.8701V33.7892Z" fill="#336791"/>
</svg>
