<svg width="27" height="36" viewBox="0 0 27 36" fill="none" xmlns="http://www.w3.org/2000/svg">
<g clip-path="url(#clip0_999_157)">
<mask id="mask0_999_157" style="mask-type:luminance" maskUnits="userSpaceOnUse" x="0" y="0" width="27" height="36">
<path d="M15 1.49705C15 0.670316 15.6716 0 16.5 0H25.5C26.3284 0 27 0.670316 27 1.49705V34.4328C27 35.2596 26.3284 35.9298 25.5 35.9298H1.49998C0.671625 35.9298 0 35.2596 0 34.4327V19.4621C0 18.6353 0.671625 17.9651 1.49998 17.9651H7.50009V10.4796C7.50009 9.65274 8.17161 8.98242 9.00007 8.98242H15V1.49705Z" fill="white"/>
</mask>
<g mask="url(#mask0_999_157)">
<path d="M27 0V35.9298H15V0H27Z" fill="url(#paint0_linear_999_157)"/>
</g>
<mask id="mask1_999_157" style="mask-type:luminance" maskUnits="userSpaceOnUse" x="0" y="0" width="27" height="36">
<path d="M15 1.49705C15 0.670316 15.6716 0 16.5 0H25.5C26.3284 0 27 0.670316 27 1.49705V34.4328C27 35.2596 26.3284 35.9298 25.5 35.9298H1.49998C0.671625 35.9298 0 35.2596 0 34.4327V19.4621C0 18.6353 0.671625 17.9651 1.49998 17.9651H7.50009V10.4796C7.50009 9.65274 8.17161 8.98242 9.00007 8.98242H15V1.49705Z" fill="white"/>
</mask>
<g mask="url(#mask1_999_157)">
<path d="M19.5001 10.6299V36.0802H7.5V9.13281H18C18.8284 9.13281 19.5 9.80302 19.5 10.6299" fill="black" fill-opacity="0.2"/>
</g>
<mask id="mask2_999_157" style="mask-type:luminance" maskUnits="userSpaceOnUse" x="0" y="0" width="27" height="36">
<path d="M15 1.49705C15 0.670316 15.6716 0 16.5 0H25.5C26.3284 0 27 0.670316 27 1.49705V34.4328C27 35.2596 26.3284 35.9298 25.5 35.9298H1.49998C0.671625 35.9298 0 35.2596 0 34.4327V19.4621C0 18.6353 0.671625 17.9651 1.49998 17.9651H7.50009V10.4796C7.50009 9.65274 8.17161 8.98242 9.00007 8.98242H15V1.49705Z" fill="white"/>
</mask>
<g mask="url(#mask2_999_157)">
<path d="M19.5001 11.2276V36.6778H7.5V9.73047H18C18.8284 9.73047 19.5 10.4008 19.5 11.2276" fill="black" fill-opacity="0.18"/>
</g>
<mask id="mask3_999_157" style="mask-type:luminance" maskUnits="userSpaceOnUse" x="0" y="0" width="27" height="36">
<path d="M15 1.49705C15 0.670316 15.6716 0 16.5 0H25.5C26.3284 0 27 0.670316 27 1.49705V34.4328C27 35.2596 26.3284 35.9298 25.5 35.9298H1.49998C0.671625 35.9298 0 35.2596 0 34.4327V19.4621C0 18.6353 0.671625 17.9651 1.49998 17.9651H7.50009V10.4796C7.50009 9.65274 8.17161 8.98242 9.00007 8.98242H15V1.49705Z" fill="white"/>
</mask>
<g mask="url(#mask3_999_157)">
<path d="M19.5001 10.4796V35.9298H7.5V8.98242H18C18.8284 8.98242 19.5 9.65274 19.5 10.4796" fill="url(#paint1_linear_999_157)"/>
</g>
<mask id="mask4_999_157" style="mask-type:luminance" maskUnits="userSpaceOnUse" x="0" y="0" width="27" height="36">
<path d="M15 1.49705C15 0.670316 15.6716 0 16.5 0H25.5C26.3284 0 27 0.670316 27 1.49705V34.4328C27 35.2596 26.3284 35.9298 25.5 35.9298H1.49998C0.671625 35.9298 0 35.2596 0 34.4327V19.4621C0 18.6353 0.671625 17.9651 1.49998 17.9651H7.50009V10.4796C7.50009 9.65274 8.17161 8.98242 9.00007 8.98242H15V1.49705Z" fill="white"/>
</mask>
<g mask="url(#mask4_999_157)">
<path d="M0 17.9648V35.9297H12V19.462C12 18.6352 11.3284 17.9649 10.5 17.9649L0 17.9648Z" fill="url(#paint2_linear_999_157)"/>
</g>
</g>
<defs>
<linearGradient id="paint0_linear_999_157" x1="526.117" y1="-8.72554e-06" x2="1848.24" y2="2808" gradientUnits="userSpaceOnUse">
<stop stop-color="#E6AD10"/>
<stop offset="1" stop-color="#C87E0E"/>
</linearGradient>
<linearGradient id="paint1_linear_999_157" x1="488.969" y1="8.9824" x2="1592.06" y2="2152.56" gradientUnits="userSpaceOnUse">
<stop stop-color="#F6D751"/>
<stop offset="1" stop-color="#E6AD10"/>
</linearGradient>
<linearGradient id="paint2_linear_999_157" x1="333.289" y1="17.9648" x2="1004.73" y2="1612.35" gradientUnits="userSpaceOnUse">
<stop stop-color="#F9E589"/>
<stop offset="1" stop-color="#F6D751"/>
</linearGradient>
<clipPath id="clip0_999_157">
<rect width="27" height="36" fill="white"/>
</clipPath>
</defs>
</svg>
