<svg width="42" height="42" viewBox="0 0 42 42" fill="none" xmlns="http://www.w3.org/2000/svg">
<g clip-path="url(#clip0_999_215)">
<path d="M20.8223 0.0117188C10.1858 0.0117188 10.8499 4.64242 10.8499 4.64242L10.8617 9.43998H21.012V10.8803H6.83022C6.83022 10.8803 0.0239258 10.1054 0.0239258 20.8796C0.0239258 31.6542 5.96463 31.2721 5.96463 31.2721H9.51002V26.2723C9.51002 26.2723 9.31889 20.3083 15.3559 20.3083H25.4231C25.4231 20.3083 31.0792 20.4 31.0792 14.8204V5.59492C31.0792 5.59492 31.9382 0.0117188 20.8223 0.0117188ZM15.2255 3.23798C15.4653 3.23776 15.7029 3.28503 15.9245 3.37708C16.1461 3.46913 16.3475 3.60415 16.5171 3.77442C16.6867 3.94469 16.8212 4.14686 16.9129 4.36937C17.0046 4.59188 17.0517 4.83036 17.0515 5.07115C17.0517 5.31195 17.0046 5.55043 16.9129 5.77294C16.8212 5.99545 16.6867 6.19762 16.5171 6.36789C16.3475 6.53816 16.1461 6.67318 15.9245 6.76523C15.7029 6.85728 15.4653 6.90455 15.2255 6.90433C14.9856 6.90455 14.7481 6.85728 14.5264 6.76523C14.3048 6.67318 14.1034 6.53816 13.9338 6.36789C13.7642 6.19762 13.6297 5.99545 13.538 5.77294C13.4463 5.55043 13.3992 5.31195 13.3995 5.07115C13.3992 4.83036 13.4463 4.59188 13.538 4.36937C13.6297 4.14686 13.7642 3.94469 13.9338 3.77442C14.1034 3.60415 14.3048 3.46913 14.5264 3.37708C14.7481 3.28503 14.9856 3.23776 15.2255 3.23798Z" fill="url(#paint0_linear_999_215)"/>
<path d="M21.124 41.8558C31.7605 41.8558 31.0963 37.2251 31.0963 37.2251L31.0845 32.4277H20.9342V30.9873H35.1159C35.1159 30.9873 41.9222 31.7623 41.9222 20.9877C41.9222 10.2133 35.9815 10.5954 35.9815 10.5954H32.4361V15.5951C32.4361 15.5951 32.6272 21.5591 26.5902 21.5591H16.523C16.523 21.5591 10.8669 21.4673 10.8669 27.0471V36.2727C10.8669 36.2727 10.0081 41.8558 21.1238 41.8558M26.7206 38.6298C26.4808 38.6301 26.2432 38.5828 26.0216 38.4907C25.8 38.3987 25.5986 38.2637 25.429 38.0934C25.2594 37.9231 25.1249 37.721 25.0332 37.4985C24.9415 37.2759 24.8944 37.0375 24.8946 36.7967C24.8944 36.5559 24.9415 36.3174 25.0331 36.0948C25.1248 35.8723 25.2593 35.6701 25.4289 35.4998C25.5985 35.3295 25.7999 35.1945 26.0216 35.1024C26.2432 35.0104 26.4808 34.9631 26.7206 34.9633C26.9605 34.9631 27.198 35.0104 27.4197 35.1024C27.6413 35.1945 27.8427 35.3295 28.0123 35.4998C28.1819 35.67 28.3164 35.8722 28.4081 36.0947C28.4998 36.3172 28.5469 36.5557 28.5467 36.7965C28.5469 37.0373 28.4998 37.2758 28.4081 37.4983C28.3164 37.7208 28.1819 37.923 28.0123 38.0932C27.8427 38.2635 27.6413 38.3985 27.4197 38.4906C27.198 38.5826 26.9605 38.6301 26.7206 38.6298Z" fill="url(#paint1_linear_999_215)"/>
</g>
<defs>
<linearGradient id="paint0_linear_999_215" x1="402.668" y1="376.375" x2="2487.08" y2="2431.93" gradientUnits="userSpaceOnUse">
<stop stop-color="#387EB8"/>
<stop offset="1" stop-color="#366994"/>
</linearGradient>
<linearGradient id="paint1_linear_999_215" x1="605.17" y1="653.935" x2="2843.19" y2="2761.34" gradientUnits="userSpaceOnUse">
<stop stop-color="#FFE052"/>
<stop offset="1" stop-color="#FFC331"/>
</linearGradient>
<clipPath id="clip0_999_215">
<rect width="42" height="42" fill="white"/>
</clipPath>
</defs>
</svg>
