<svg width="42" height="42" viewBox="0 0 42 42" fill="none" xmlns="http://www.w3.org/2000/svg">
<g clip-path="url(#clip0_999_201)">
<path d="M28.475 14.834L23.8366 16.3486L19.8014 18.1295L18.6725 18.4275C18.3848 18.701 18.0835 18.978 17.7574 19.2586C17.3998 19.5671 17.0666 19.8475 16.8109 20.0508C16.5268 20.2753 16.1061 20.6959 15.8923 20.9623C15.5732 21.3619 15.3208 21.7863 15.2122 22.1123C15.0193 22.7014 15.114 23.2973 15.4856 23.8477C15.9624 24.5489 16.9125 25.264 18.0204 25.7513C18.5848 26.0003 19.5348 26.3194 20.2501 26.4981C21.4385 26.7996 23.7386 27.1258 25.004 27.1748C25.2599 27.1855 25.6035 27.1855 25.6175 27.1748C25.6456 27.1572 25.842 26.7822 26.0698 26.3159C26.8482 24.7277 27.4092 23.2377 27.7142 21.9651C27.8964 21.1939 28.0401 20.1666 28.1348 18.95C28.1594 18.6099 28.1699 17.4705 28.149 17.0848C28.1172 16.4539 28.0611 15.9419 27.9735 15.4406C27.9595 15.3669 27.9559 15.3003 27.963 15.2968C27.9771 15.2863 28.0191 15.2724 28.5906 15.1075L28.475 14.834ZM27.4163 15.4546C27.4582 15.4546 27.5704 16.5308 27.5985 17.2109C27.6056 17.3548 27.602 17.4494 27.5949 17.4494C27.5669 17.4494 27.0025 17.1164 26.5994 16.8641C26.2487 16.6432 25.5826 16.2014 25.4774 16.1172C25.4423 16.0927 25.4458 16.0891 25.7333 15.9911C26.2206 15.8261 27.3777 15.4546 27.4163 15.4546ZM25.0532 16.233C25.0848 16.233 25.1654 16.2784 25.3583 16.3976C26.0803 16.8499 27.0622 17.3968 27.4829 17.5792C27.6125 17.6353 27.6265 17.6142 27.3284 17.8175C26.6905 18.2522 25.8946 18.68 24.92 19.1112C24.8147 19.1593 24.7083 19.2049 24.6009 19.2479C24.594 19.2479 24.6151 19.1604 24.643 19.0551C24.8779 18.1821 25.0111 17.2988 25.0182 16.5904C25.0218 16.2399 25.0218 16.2399 25.0532 16.2294C25.0461 16.233 25.0496 16.233 25.0532 16.233ZM24.5659 16.4187C24.5869 16.4397 24.573 17.2249 24.5448 17.4389C24.4822 17.9558 24.3743 18.4661 24.2223 18.964C24.1838 19.0936 24.1486 19.2025 24.1417 19.2094C24.1275 19.2268 23.6473 18.7571 23.4896 18.5747C23.2161 18.2593 23.0023 17.9438 22.8444 17.6353C22.7638 17.4775 22.6377 17.169 22.6482 17.1585C22.7043 17.1198 24.5519 16.4047 24.5659 16.4187ZM22.273 17.3198C22.2765 17.3198 22.2801 17.3198 22.2836 17.3233C22.2906 17.3302 22.3151 17.3864 22.3362 17.4494C22.4482 17.7545 22.7008 18.2032 22.9181 18.4907C23.1564 18.8063 23.4686 19.1428 23.7279 19.3635C23.8121 19.4337 23.8891 19.5003 23.8996 19.5109C23.9209 19.5319 23.9279 19.5283 23.3562 19.7457C22.6938 19.9982 21.9714 20.2506 21.1441 20.5171C20.9464 20.5808 20.749 20.6451 20.5517 20.71C20.5201 20.7204 20.5305 20.7029 20.6218 20.559C21.032 19.9176 21.6559 18.6589 22.0066 17.7685C22.0663 17.614 22.1258 17.4599 22.1362 17.4249C22.1504 17.3757 22.1678 17.3583 22.2135 17.3336C22.238 17.3267 22.2625 17.3198 22.273 17.3198ZM21.5719 17.6106C21.5825 17.6177 21.4035 17.9928 21.2283 18.3364C20.8882 18.999 20.5165 19.6512 20.0188 20.4434C19.9346 20.5802 19.854 20.7064 19.8435 20.7204C19.8259 20.745 19.819 20.738 19.7629 20.6293C19.6437 20.3944 19.5455 20.0929 19.4929 19.816C19.4402 19.5426 19.4509 19.0656 19.5103 18.7711C19.556 18.5538 19.5524 18.5573 19.6577 18.5048C20.1063 18.2768 21.5577 17.5966 21.5719 17.6106ZM27.6196 17.8561V18.0035C27.6196 18.7852 27.5354 19.8579 27.4127 20.6398C27.3916 20.7766 27.374 20.8886 27.3706 20.8922C27.3706 20.8922 27.2689 20.8643 27.1497 20.8291C26.591 20.6516 26.0509 20.4203 25.5369 20.1383C25.1969 19.9528 24.7026 19.6477 24.7165 19.6337C24.72 19.6301 24.8674 19.553 25.0392 19.4618C25.7264 19.1043 26.3854 18.7186 26.957 18.3364C27.1707 18.1926 27.4933 17.9614 27.5635 17.8981L27.6196 17.8561ZM18.9249 18.8938C18.9389 18.8938 18.9355 18.9219 18.9142 19.0482C18.8967 19.1727 18.8839 19.2978 18.8758 19.4232C18.8478 19.935 18.932 20.3138 19.1843 20.8325C19.2544 20.9763 19.3106 21.0955 19.307 21.0989C19.2825 21.1202 16.9617 21.8003 16.2324 22.0001C16.015 22.0596 15.8257 22.1123 15.8115 22.1157C15.7872 22.1228 15.7836 22.1193 15.7941 22.0596C15.8747 21.5442 16.2674 20.8712 16.8143 20.3033C17.1789 19.9245 17.4699 19.7036 17.9677 19.4197C18.3253 19.2163 18.8758 18.9114 18.9178 18.8974C18.9178 18.8938 18.9213 18.8938 18.9249 18.8938ZM24.3942 19.872C24.3977 19.8684 24.4817 19.9141 24.5833 19.9737C25.3336 20.4084 26.3785 20.8115 27.2689 21.0184L27.3495 21.036L27.2373 21.0991C26.7711 21.3583 25.2389 21.9965 23.672 22.582C23.4439 22.6662 23.2197 22.7504 23.1774 22.7678C23.1355 22.7854 23.0968 22.7958 23.0968 22.7925C23.0968 22.7889 23.16 22.6662 23.2406 22.5154C23.6789 21.695 24.1205 20.6959 24.345 20.0018C24.3731 19.935 24.3905 19.8755 24.3942 19.872ZM23.8366 20.0543C23.8401 20.0579 23.8121 20.1314 23.7771 20.2156C23.472 20.9554 23.0723 21.7618 22.5607 22.6662C22.4308 22.8976 22.3222 23.0835 22.3186 23.0835C22.3151 23.0835 22.2099 23.0203 22.0837 22.9432C21.3403 22.4874 20.6813 21.9264 20.2501 21.383L20.1869 21.3059L20.506 21.2182C21.649 20.9062 22.62 20.5697 23.5842 20.1561C23.721 20.1 23.8332 20.0543 23.8366 20.0543ZM27.3005 21.2637C27.304 21.3445 27.1252 22.0667 26.978 22.589C26.8553 23.0272 26.75 23.3708 26.5571 23.9773C26.4731 24.2438 26.3994 24.4647 26.3959 24.4647C26.3923 24.4647 26.3714 24.4612 26.3504 24.4541C25.3091 24.2648 24.3766 24.002 23.5002 23.6514C23.2546 23.5532 22.9041 23.3954 22.883 23.378C22.876 23.3708 23.0865 23.2726 23.3528 23.157C24.9481 22.4591 26.6028 21.667 27.1708 21.3269C27.2373 21.2848 27.2898 21.2637 27.3005 21.2637ZM19.3035 21.5373C19.3106 21.5444 18.8654 22.1858 18.2412 23.0588C18.0238 23.3639 17.7715 23.7214 17.6768 23.8548C17.5673 24.0092 17.4609 24.1658 17.3577 24.3245L17.2103 24.5523L17.0526 24.4191C16.8669 24.2648 16.5444 23.9354 16.4007 23.7532C16.0992 23.378 15.8959 22.9818 15.8152 22.6207C15.7765 22.4524 15.7765 22.3682 15.8117 22.3577C15.8642 22.3435 16.8003 22.1228 17.6768 21.9195C18.0955 21.8231 18.5139 21.7249 18.9318 21.625C19.1353 21.5759 19.3001 21.5373 19.3035 21.5373ZM19.7522 21.709L19.8644 21.8353C20.3693 22.3998 20.8846 22.817 21.5088 23.1815C21.6209 23.2448 21.7051 23.3007 21.698 23.3043C21.6735 23.322 19.5315 24.0826 18.5392 24.4262C18.1999 24.5464 17.8599 24.6643 17.5191 24.7801C17.5156 24.7801 17.484 24.7592 17.4488 24.7347L17.3858 24.689L17.4875 24.5418C17.8169 24.065 18.2307 23.5427 19.1319 22.4558L19.7522 21.709ZM22.55 23.7109C22.5536 23.7074 22.7077 23.7635 22.897 23.8336C23.3528 24.0055 23.7139 24.1142 24.1978 24.2367C24.7937 24.3877 25.6563 24.5349 26.1647 24.577C26.2417 24.5839 26.2836 24.591 26.2698 24.6015C26.2451 24.6155 25.7299 24.7872 25.3512 24.9066C24.7481 25.0957 22.9076 25.6393 21.4071 26.0704C21.1301 26.1511 20.8917 26.2178 20.8777 26.2212C20.8427 26.2283 20.7268 26.1965 20.7268 26.1827C20.7268 26.1756 20.8111 26.0669 20.9127 25.9477C21.4176 25.3447 21.9189 24.6716 22.3362 24.0334C22.4518 23.8581 22.55 23.7145 22.55 23.7109ZM21.9329 23.7287C21.9365 23.732 21.6875 24.1318 21.2528 24.8188C21.067 25.1097 20.8601 25.4393 20.7864 25.5551C20.7163 25.6672 20.6112 25.8426 20.5517 25.9406L20.4499 26.1195L20.3974 26.1054C20.2713 26.0704 19.3841 25.7584 19.1493 25.6638C18.8707 25.5529 18.5981 25.4276 18.3324 25.2885C18.0519 25.1378 17.7013 24.9135 17.7294 24.9064C17.7365 24.9028 18.2167 24.7732 18.795 24.6155C20.3308 24.1982 21.1826 23.9563 21.7401 23.7811C21.8418 23.7495 21.9294 23.7251 21.9329 23.7287ZM26.2979 24.7523H26.3014C26.3153 24.7872 25.7474 26.3649 25.5405 26.8628C25.495 26.9749 25.4774 27.0031 25.4529 26.9995C25.3933 26.996 24.5695 26.8802 24.068 26.8067C23.1952 26.6735 21.7296 26.4174 21.3616 26.3334L21.2775 26.3157L21.7995 26.1967C22.9217 25.9442 23.4615 25.8074 24.0085 25.6391C24.7147 25.423 25.4048 25.1571 26.0734 24.8434C26.1821 24.7942 26.2732 24.7556 26.2979 24.7523Z" fill="url(#paint0_linear_999_201)"/>
<path d="M23.693 4.02166C23.616 4.01119 22.3713 4.45994 21.5685 4.78597C20.4852 5.2278 19.6438 5.64849 19.1249 6.01306C18.9321 6.1498 18.69 6.39166 18.6517 6.48631C18.6374 6.52448 18.6302 6.56491 18.6304 6.60565L19.1004 7.05085L20.2187 7.40849L22.8797 7.8853L25.9227 8.40757L25.9544 8.14474C25.9437 8.14474 25.9368 8.14119 25.9263 8.14119L25.5267 8.07797L25.4459 7.93431C25.0322 7.20516 24.5765 6.30056 24.3101 5.69057C24.1033 5.21732 23.907 4.67037 23.7982 4.27774C23.7387 4.03925 23.7316 4.02522 23.6932 4.02184L23.693 4.02166ZM23.6369 4.20049H23.6405C23.644 4.20404 23.6581 4.30224 23.6721 4.41785C23.7316 4.90886 23.8403 5.38211 24.0121 5.8939C24.1418 6.27961 24.1418 6.25848 23.991 6.21284C23.6335 6.11481 22.0312 5.83779 20.8709 5.67654C20.685 5.65204 20.5273 5.62753 20.5273 5.62398C20.5131 5.60995 21.3651 5.16475 21.7402 4.98948C22.2205 4.76857 23.5387 4.21807 23.6367 4.20049H23.6369ZM20.2572 5.77119L20.3939 5.81666C21.1373 6.06918 23.0058 6.42682 24.0367 6.511C24.1523 6.52148 24.2505 6.53195 24.2538 6.53195C24.2574 6.5355 24.1594 6.58807 24.0331 6.64774C23.5353 6.89653 22.9884 7.20161 22.6096 7.43655C22.4976 7.50652 22.3958 7.56263 22.3818 7.56263C22.3677 7.56263 22.2942 7.54861 22.2172 7.53813L22.0769 7.51717L21.7263 7.17355C21.2999 6.75837 20.871 6.34578 20.4396 5.93581L20.2572 5.77119ZM20.1169 5.87987L20.6113 6.49697C20.8812 6.83704 21.1547 7.17 21.2144 7.2437C21.274 7.31722 21.323 7.37688 21.3197 7.38044C21.3055 7.39091 20.6044 7.25418 20.2329 7.17C19.8505 7.08245 19.6928 7.04037 19.4579 6.96667L19.265 6.90363V6.85444C19.2686 6.6195 19.5666 6.26895 20.0714 5.91148L20.1169 5.87987ZM24.3171 6.72125C24.3313 6.72125 24.3487 6.75286 24.3908 6.84734C24.5097 7.11033 24.8816 7.81871 24.9727 7.95544C25.0007 8.00091 25.0498 8.00446 24.5554 7.92383C23.367 7.73098 22.9848 7.66794 22.9848 7.66101C22.9848 7.65746 23.0198 7.63278 23.0655 7.60827C23.4336 7.40494 23.8053 7.1455 24.1349 6.86847C24.2155 6.80188 24.289 6.73883 24.303 6.72818C24.3066 6.72125 24.3135 6.7177 24.3171 6.72125Z" fill="url(#paint1_linear_999_201)"/>
<path d="M18.6757 6.4375C18.6757 6.4375 18.5986 6.56039 18.6721 6.74276C18.7179 6.85482 18.8511 6.99155 19.0017 7.13184C19.0017 7.13184 20.5619 8.65336 20.7513 8.87072C21.6136 9.86642 21.9888 10.8481 22.0238 12.2014C22.0449 13.0709 21.88 13.8352 21.4699 14.7222C20.7408 16.3139 19.2017 18.0703 16.8281 20.0194L17.1753 19.904C17.3996 19.7355 17.7045 19.5568 18.4198 19.164C20.0711 18.2596 21.9291 17.4287 24.208 16.5731C27.4896 15.3391 32.8852 13.8947 35.9563 13.425L36.2752 13.3758L36.2262 13.2987C35.9456 12.864 35.753 12.5941 35.5214 12.3066C34.8484 11.4721 34.0315 10.7955 33.0324 10.2345C31.6579 9.46686 29.8803 8.86717 27.6297 8.42197C27.2056 8.3378 26.273 8.17655 25.5158 8.06095C24.2518 7.86649 22.9896 7.66079 21.7294 7.44385C21.3192 7.37371 20.7056 7.26858 20.2989 7.18103C20.0885 7.1354 19.6854 7.04074 19.3698 6.93206C19.1175 6.83386 18.7529 6.73548 18.6757 6.4375ZM19.5803 7.31422C19.5838 7.31067 19.6398 7.33162 19.7135 7.35631C19.8467 7.40177 20.0185 7.45433 20.2219 7.51045C20.3758 7.55277 20.53 7.59368 20.6847 7.63315C20.8951 7.68572 21.0704 7.73491 21.0737 7.73491C21.0984 7.75941 21.4525 8.89167 21.5717 9.32639C21.6171 9.49136 21.6523 9.63148 21.6487 9.63148C21.6452 9.63503 21.6067 9.57536 21.5612 9.49474C21.151 8.77252 20.5023 8.03982 19.752 7.45078C19.654 7.38081 19.5803 7.31777 19.5803 7.31422ZM21.3051 7.79102C21.3229 7.79102 21.4 7.8015 21.4944 7.82246C22.0906 7.95564 23.1598 8.15915 23.8435 8.27476C23.9591 8.29234 24.0504 8.31329 24.0504 8.32039C24.0504 8.3275 24.0083 8.35183 23.9555 8.37988C23.8401 8.43955 23.3736 8.7164 23.2195 8.82171C22.8302 9.08098 22.4796 9.36155 22.2273 9.61407C22.1647 9.67658 22.1016 9.7385 22.0378 9.79982C22.0378 9.79982 22.0169 9.74016 21.9993 9.66664C21.8732 9.17918 21.6102 8.45695 21.3717 7.94872C21.3332 7.86809 21.3016 7.7944 21.3016 7.78747C21.3016 7.79458 21.3016 7.79102 21.3051 7.79102ZM24.3412 8.36941C24.3624 8.37651 24.3973 8.49549 24.4673 8.75849C24.5989 9.28315 24.6557 9.8238 24.6358 10.3644C24.6287 10.5116 24.6216 10.6483 24.6147 10.6659L24.6041 10.7009L24.4219 10.6412C24.0468 10.5222 23.4368 10.3432 22.9144 10.196C22.6164 10.1154 22.3745 10.0417 22.3745 10.0348C22.3745 10.0136 22.8092 9.57891 22.995 9.41412C23.3491 9.10211 24.3096 8.35893 24.3412 8.36941ZM24.5831 8.40439C24.5938 8.39391 26.0346 8.64288 26.6903 8.76914C27.1776 8.86379 27.8858 9.01101 27.9278 9.02841C27.9488 9.03551 27.8753 9.0776 27.6402 9.18291C26.7148 9.60004 26.0277 9.97492 25.344 10.4309C25.1652 10.5499 25.0144 10.6483 25.0109 10.6483C25.0073 10.6483 25.0038 10.5466 25.0038 10.4238C25.0038 9.75791 24.8706 9.0847 24.6252 8.51662C24.6007 8.46051 24.5795 8.40794 24.5831 8.40439ZM28.31 9.14082C28.3207 9.1513 28.2748 9.43525 28.2327 9.60342C28.1067 10.1259 27.7666 10.9008 27.3495 11.63C27.2758 11.7596 27.2092 11.8647 27.2021 11.8683C27.195 11.8718 27.1005 11.8193 26.9918 11.7561C26.5851 11.5177 26.1224 11.2933 25.6173 11.083C25.4772 11.0234 25.3545 10.9743 25.351 10.9672C25.3265 10.9463 26.4553 10.1996 27.0513 9.84191C27.5246 9.55441 28.296 9.12661 28.31 9.14082ZM28.5764 9.18273C28.608 9.18273 29.246 9.35818 29.579 9.4562C30.403 9.70162 31.3495 10.0488 31.9666 10.3292L32.2223 10.445L32.0436 10.4871C30.5362 10.8341 29.246 11.2338 28.0014 11.7387C27.8998 11.7807 27.8085 11.8157 27.8016 11.8157C27.7945 11.8157 27.8296 11.7351 27.8753 11.6369C28.2503 10.8412 28.4922 10.0103 28.5519 9.30189C28.5554 9.23529 28.5659 9.18273 28.5764 9.18273ZM22.2238 10.6412C22.2342 10.6307 22.7215 10.7465 22.9845 10.82C23.3841 10.9323 24.2326 11.216 24.2326 11.2373C24.2326 11.2409 24.1379 11.3213 24.0258 11.4195C23.5664 11.8017 23.1248 12.2048 22.5953 12.7168C22.4376 12.8675 22.3044 12.9902 22.2975 12.9902C22.2905 12.9902 22.2868 12.9691 22.2903 12.9411C22.371 12.352 22.3536 11.595 22.2413 10.8271C22.2307 10.7289 22.2204 10.6448 22.2238 10.6412ZM32.4645 10.6519C32.4714 10.6588 32.24 11.0234 32.0928 11.2302C31.8824 11.5318 31.5739 11.9315 30.8762 12.8079C30.5688 13.1937 30.2627 13.5806 29.9578 13.9684C29.8175 14.1436 29.7017 14.2909 29.6981 14.2909C29.6946 14.2909 29.6493 14.2278 29.6001 14.1506C29.2075 13.5617 28.7376 13.0464 28.1802 12.5836C28.0952 12.5117 28.0088 12.4415 27.9209 12.3732C27.8822 12.3451 27.8506 12.317 27.8506 12.3135C27.8506 12.303 28.4466 12.0471 28.8989 11.8647C29.6912 11.5423 30.7709 11.1565 31.5809 10.9076C32.0053 10.7744 32.4574 10.6448 32.4645 10.6519ZM32.7344 10.7218C32.7483 10.7183 32.8325 10.7605 32.9342 10.82C33.7862 11.3073 34.6205 11.9349 35.2797 12.5799C35.4655 12.7624 35.9247 13.2392 35.9178 13.2426C35.9178 13.2426 35.7563 13.2568 35.5672 13.2706C34.0912 13.3829 32.2015 13.6949 30.3854 14.133C30.3063 14.1519 30.2268 14.1695 30.1471 14.1857C30.14 14.1857 30.2767 14.049 30.4486 13.8842C31.5144 12.8569 32.0017 12.2084 32.5766 11.0514C32.6572 10.8797 32.7275 10.7325 32.7344 10.7218C32.7309 10.7218 32.7309 10.7218 32.7344 10.7218ZM24.9267 11.5213C24.9759 11.5318 25.4316 11.7456 25.7752 11.9173C26.0908 12.0752 26.564 12.3275 26.5885 12.3486C26.5921 12.3522 26.4237 12.4397 26.217 12.5415C25.599 12.8489 24.9943 13.1822 24.4044 13.5406C24.2361 13.6423 24.0958 13.7265 24.0924 13.7265C24.0782 13.7265 24.0818 13.7123 24.1764 13.5406C24.492 12.9657 24.7445 12.2785 24.8882 11.6088C24.9022 11.5563 24.9162 11.5213 24.9267 11.5213ZM24.471 11.6053C24.4815 11.6159 24.3624 12.0471 24.2887 12.2819C24.1448 12.7273 23.903 13.2847 23.6682 13.7054C23.6121 13.8036 23.5279 13.9472 23.4823 14.0279L23.3947 14.1681L23.1983 13.9788C22.9705 13.7579 22.7846 13.6212 22.5462 13.4985C22.4516 13.4495 22.3781 13.4074 22.3781 13.4005C22.3781 13.3724 22.9776 12.829 23.4368 12.4362C23.7662 12.1522 24.4606 11.5948 24.471 11.6053ZM27.2582 12.7518L27.4301 12.864C27.8225 13.1199 28.2853 13.46 28.6394 13.7579C28.8394 13.9227 29.2249 14.2699 29.3021 14.3539L29.3441 14.3995L29.0603 14.4802C27.4546 14.9254 26.2135 15.3215 24.7655 15.8546C24.6042 15.9141 24.4675 15.9631 24.457 15.9631C24.4359 15.9631 24.4183 15.9807 24.7795 15.6476C25.7051 14.7957 26.5255 13.8561 27.1355 12.9412L27.2582 12.7518ZM26.5255 12.9341C26.5326 12.9412 26.0522 13.6178 25.7647 13.9998C25.4211 14.4556 24.8111 15.2198 24.3902 15.7177C24.2152 15.9246 24.0644 16.0963 24.0573 16.0999C24.0466 16.1034 24.0433 16.0509 24.0433 15.9702C24.0433 15.5458 23.9346 15.0937 23.7453 14.708C23.6646 14.5467 23.6506 14.5082 23.6682 14.4906C23.7348 14.4311 24.755 13.849 25.4 13.502C25.8349 13.2706 26.5148 12.927 26.5255 12.9341ZM22.0939 14.0209C22.1046 14.0209 22.1852 14.063 22.2763 14.112C22.4897 14.2283 22.6916 14.3644 22.8794 14.5187C22.8863 14.5258 22.7952 14.5995 22.6761 14.687C22.2924 14.9639 21.9149 15.2491 21.5436 15.5424C21.235 15.7879 21.2247 15.795 21.2595 15.7424C21.4911 15.3883 21.6067 15.1883 21.7294 14.9326C21.8422 14.6945 21.9406 14.4497 22.024 14.1998C22.0519 14.098 22.087 14.0209 22.0939 14.0209ZM23.2756 14.9465C23.293 14.9429 23.3141 14.9745 23.4088 15.1148C23.6085 15.4126 23.7628 15.8124 23.8014 16.135L23.8085 16.2052L23.3281 16.3909C22.4692 16.7239 21.6768 17.0535 21.1403 17.2989C20.9897 17.369 20.7266 17.4953 20.555 17.5795C20.3831 17.667 20.2428 17.7336 20.2428 17.7302C20.2428 17.7269 20.3515 17.6461 20.4849 17.5479C21.5331 16.7871 22.4411 15.9527 23.1212 15.1182C23.1949 15.0307 23.2615 14.95 23.2686 14.9465H23.2756ZM22.7322 15.0797C22.7462 15.0939 22.3465 15.546 22.073 15.8228C21.3964 16.5136 20.7267 17.0535 19.8958 17.5795C19.7907 17.6461 19.6961 17.7056 19.6854 17.7127C19.6609 17.7267 19.6925 17.6915 20.0571 17.2954C20.2709 17.0659 20.4733 16.826 20.6635 16.5767C20.7967 16.405 20.8214 16.3805 21.0142 16.2437C21.5296 15.872 22.7181 15.0656 22.7322 15.0797Z" fill="url(#paint2_radial_999_201)"/>
<path d="M7.55084 29.5969C7.48587 29.5969 7.42123 29.6032 7.35725 29.6032C6.05098 29.6727 5.16997 30.2476 4.65481 31.3704C4.21414 32.3857 4.26237 33.7126 4.65973 34.7344C5.12173 35.7325 5.86855 36.2595 7.11509 36.4583C7.37858 36.5017 7.55544 36.6464 8.06665 37.2426L8.69501 37.9792H9.83492L9.07695 37.2147C8.65794 36.796 8.31898 36.4311 8.31898 36.399C8.31898 36.3671 8.47911 36.2969 8.67336 36.2378C9.31287 36.0442 9.84378 35.5501 10.2155 34.7928C10.5161 34.1848 10.5594 33.9967 10.6027 33.2401C10.7153 30.9882 9.52779 29.5802 7.55051 29.5963L7.55084 29.5969ZM8.54998 35.4861C7.99545 35.7545 7.19023 35.8083 6.66458 35.6154C6.1212 35.4159 5.59489 34.8515 5.35831 34.2127C5.09548 33.5137 5.13289 32.2249 5.43378 31.6444C5.91711 30.7201 6.55695 30.2952 7.49112 30.2952C8.87778 30.2952 9.66659 31.144 9.7693 32.7397C9.85067 34.0719 9.40475 35.0714 8.55064 35.4858L8.54998 35.4861ZM28.2408 31.5207C27.7627 31.5207 27.3968 31.7143 27.1501 32.0956L26.9565 32.3975V31.6123H26.1293V36.3195H26.9562V34.8148C26.9562 33.4389 26.9735 33.2782 27.1658 32.9018C27.4306 32.3853 27.8867 32.1281 28.3274 32.2511L28.6227 32.3374V31.5217H28.2411L28.2408 31.5207ZM23.3793 31.4774C23.2092 31.4791 23.0398 31.4989 22.874 31.5365C21.7669 31.8262 21.1428 32.886 21.1808 33.9764C21.1808 34.8896 21.3587 35.3463 21.799 35.8251C22.7017 36.5656 23.5184 36.6247 24.6199 36.2273C24.8076 36.1473 25.0123 36.0547 25.0123 36.0547V35.3142L24.6199 35.5176C23.7284 35.9058 23.0567 35.9058 22.5186 35.4487C22.1757 35.0992 22.0244 34.6802 21.9552 34.2018H25.2916V33.5676C25.2916 32.2734 24.5126 31.4564 23.3786 31.4774H23.3793ZM22.03 33.5413C22.03 33.5413 22.1534 32.7341 22.6108 32.4178C22.821 32.2683 23.0724 32.1877 23.3304 32.1871C23.5781 32.1871 23.8249 32.2672 24.029 32.4234C24.448 32.7456 24.5179 33.5357 24.5179 33.5357H22.0303L22.03 33.5413ZM2.081 32.6928C1.1839 32.1491 0.785889 31.7573 0.83478 31.295C0.973905 30.0166 2.5535 30.1935 3.42861 30.6771L3.43484 29.8171C3.43484 29.8171 2.95119 29.6074 2.25786 29.5963C1.1944 29.5805 0.506655 29.929 0.184764 30.6387C-0.28872 31.6864 0.130295 32.4762 1.64492 33.3576C2.49509 33.852 2.8708 34.2816 2.8708 34.7498C2.8708 35.7171 1.70464 36.0551 0.501405 35.448C0.253998 35.3247 0.0443264 35.2216 0.0328421 35.2216C-0.0104704 35.496 0.0118421 36.1522 0.0118421 36.1522C0.0118421 36.1522 0.381639 36.3074 0.93617 36.4147C2.31101 36.6887 3.56281 36.0436 3.68094 34.9962C3.78397 34.0128 3.42828 33.4967 2.081 32.6918V32.6928ZM35.5645 31.4666C35.3924 31.4689 35.221 31.4888 35.053 31.526C33.9472 31.8157 33.3241 32.8755 33.3664 33.9662C33.3664 34.8781 33.5436 35.3302 33.9839 35.8083C34.8866 36.5499 35.7033 36.609 36.8101 36.2113C36.941 36.1552 37.0714 36.0982 37.2015 36.0403V35.2984L36.8097 35.5028C35.9163 35.89 35.2446 35.89 34.7084 35.4326C34.3636 35.0838 34.214 34.6697 34.1441 34.1861H37.4752V33.5515C37.4752 32.2639 36.6962 31.4459 35.5625 31.4679L35.5645 31.4666ZM34.2149 33.5305C34.2149 33.5305 34.3396 32.7246 34.796 32.4017C35.0061 32.2523 35.2572 32.1716 35.515 32.1707C35.7617 32.1707 36.0098 32.2508 36.2139 32.407C36.6329 32.7295 36.7031 33.5249 36.7031 33.5249H34.2159L34.2149 33.5305ZM19.0477 32.703C18.1506 32.1609 17.7536 31.7678 17.8018 31.3051C17.9409 30.0264 19.5208 30.204 20.3956 30.6873L20.4022 29.8276C20.4022 29.8276 19.9182 29.6176 19.2252 29.6077C18.1614 29.592 17.474 29.9408 17.1515 30.6505C16.6786 31.6979 17.1032 32.488 18.6126 33.369C19.4618 33.8632 19.8375 34.2871 19.8375 34.7554C19.8375 35.7227 18.6717 36.0659 17.4684 35.4533C17.222 35.3302 17.0123 35.2285 17.0002 35.2285C16.9572 35.5025 16.9792 36.1591 16.9792 36.1591C16.9792 36.1591 17.3447 36.3087 17.8973 36.4216C19.2738 36.6962 20.5256 36.0515 20.6437 35.0041C20.7457 34.0256 20.391 33.5101 19.0477 32.7039V32.703ZM40.426 31.5096C39.9479 31.5096 39.5778 31.7032 39.3353 32.0851L39.1417 32.3857V31.6021H38.3145V36.3081H39.1414V34.8036C39.1414 33.4281 39.1578 33.2667 39.3507 32.8906C39.6159 32.3752 40.072 32.1172 40.5123 32.2413L40.8083 32.3272V31.5096H40.426ZM12.4671 32.676V29.6776H11.633V36.3186H15.1414V35.5343H12.4671V32.676ZM31.7599 33.6105L31.0725 35.3998L30.411 33.6004L29.7396 31.6067H28.8855C29.4458 33.1873 30.0333 34.7581 30.6476 36.3186C30.911 36.3245 31.1745 36.3186 31.4377 36.3186L32.3663 33.9869L33.3119 31.6073H32.4959C32.4959 31.6073 32.135 32.5523 31.7592 33.6109L31.7599 33.6105ZM14.39 27.868C14.5242 27.868 14.6364 27.825 14.7286 27.7325C14.7735 27.6897 14.8091 27.638 14.8331 27.5808C14.8571 27.5235 14.869 27.4619 14.868 27.3998C14.868 27.2653 14.8201 27.1534 14.7286 27.0671C14.6846 27.0244 14.6325 26.9909 14.5753 26.9686C14.5182 26.9464 14.4572 26.9358 14.3959 26.9375C14.2603 26.9375 14.1485 26.9808 14.0572 27.072C13.9647 27.1632 13.9227 27.2754 13.9227 27.4047C13.9227 27.5402 13.966 27.6525 14.0572 27.7374C14.1435 27.8237 14.2554 27.8667 14.39 27.8667V27.868ZM14.094 27.1038C14.174 27.0241 14.2715 26.9867 14.3959 26.9867C14.513 26.9867 14.6105 27.0241 14.6918 27.1038C14.7719 27.1842 14.8152 27.2817 14.8152 27.3998C14.816 27.4556 14.8055 27.511 14.7843 27.5627C14.7631 27.6144 14.7316 27.6612 14.6918 27.7004C14.6105 27.7804 14.513 27.8185 14.3959 27.8185C14.2771 27.8185 14.1803 27.7817 14.1005 27.7004C14.0607 27.6612 14.0293 27.6144 14.0081 27.5627C13.9869 27.511 13.9764 27.4556 13.9772 27.3998C13.9772 27.2817 14.0136 27.1842 14.094 27.1038ZM14.2928 27.4431H14.3473C14.3857 27.4431 14.4231 27.4799 14.4552 27.5501L14.5199 27.6954H14.6216L14.5415 27.534C14.5087 27.4694 14.4769 27.432 14.4392 27.4215C14.4867 27.4103 14.5245 27.3942 14.5514 27.3624C14.5644 27.3477 14.5744 27.3305 14.5807 27.312C14.587 27.2934 14.5895 27.2737 14.5881 27.2541C14.5895 27.2328 14.5858 27.2115 14.5775 27.1919C14.5692 27.1722 14.5564 27.1548 14.5402 27.1409C14.5032 27.1101 14.4441 27.0937 14.3676 27.0937H14.1967V27.6954H14.2827V27.4428L14.2928 27.4431ZM14.2928 27.1632H14.3683C14.4224 27.1632 14.4605 27.1744 14.4818 27.1905C14.5018 27.2062 14.5077 27.2272 14.5077 27.2653C14.5077 27.3352 14.4644 27.3676 14.3844 27.3676H14.2922V27.1632H14.2928ZM0.512561 27.3896C0.512561 27.1796 0.506326 27.0238 0.501405 26.9322H0.506326C0.527655 27.0405 0.554561 27.1212 0.576217 27.175L1.37684 28.9643H1.51137L2.312 27.159C2.33398 27.1097 2.35531 27.0356 2.38189 26.9325H2.38812C2.37424 27.0848 2.36701 27.2377 2.36647 27.3906V28.9695H2.64078V26.6221H2.2969L1.56059 28.2555C1.53347 28.3201 1.49584 28.4165 1.44772 28.545H1.43656C1.408 28.4495 1.37224 28.3564 1.32959 28.2664L0.609686 26.6169H0.244483V28.9646H0.507967V27.3906L0.512561 27.3896ZM3.24125 27.3936H3.47815V28.8557H3.24125V27.3936ZM3.3597 26.8574C3.38251 26.8582 3.40523 26.8542 3.42642 26.8458C3.4476 26.8373 3.46679 26.8245 3.48275 26.8082C3.49969 26.7924 3.51326 26.7734 3.52262 26.7523C3.53199 26.7311 3.53695 26.7083 3.53722 26.6851C3.5382 26.6619 3.53389 26.6387 3.52463 26.6173C3.51537 26.5959 3.50138 26.577 3.48373 26.5618C3.46724 26.5457 3.44773 26.5331 3.42632 26.5247C3.40492 26.5162 3.38205 26.5121 3.35905 26.5125C3.33624 26.5117 3.31352 26.5157 3.29233 26.5242C3.27114 26.5327 3.25196 26.5455 3.236 26.5618C3.21922 26.5777 3.20579 26.5968 3.19649 26.618C3.1872 26.6392 3.18222 26.662 3.18186 26.6851C3.18186 26.7386 3.19826 26.776 3.236 26.8082C3.2691 26.8399 3.31321 26.8575 3.35905 26.8574H3.3597ZM5.16505 28.8878V28.6303C5.03544 28.7271 4.89598 28.775 4.75194 28.775C4.57967 28.775 4.43956 28.7159 4.33751 28.6027C4.2358 28.4905 4.18133 28.3346 4.18133 28.1404C4.18133 27.9369 4.2358 27.7755 4.34801 27.6525C4.45586 27.5343 4.59553 27.4752 4.76703 27.4749C4.90681 27.4749 5.04101 27.5182 5.16505 27.6045V27.3302C5.05217 27.2712 4.92354 27.2439 4.77786 27.2439C4.50945 27.2439 4.29978 27.3302 4.14326 27.4966C3.98806 27.663 3.908 27.889 3.908 28.162C3.908 28.4048 3.97756 28.6089 4.12259 28.7648C4.27353 28.9249 4.46647 29.0063 4.70272 29.0063C4.88581 29.001 5.03544 28.963 5.16505 28.8878ZM5.84197 28.1082C5.84197 27.9156 5.88528 27.7598 5.96534 27.6521C6.04037 27.5557 6.1317 27.5073 6.23933 27.5071C6.33054 27.5071 6.39551 27.5235 6.44276 27.5612V27.2813C6.40601 27.2653 6.3522 27.26 6.28264 27.26C6.18584 27.26 6.09987 27.2928 6.02375 27.3525C5.94369 27.4159 5.8797 27.5127 5.84197 27.6357H5.83573V27.2925H5.56798V28.9686H5.83639V28.1085L5.84197 28.1082ZM7.38415 29.0017C7.63681 29.0017 7.84025 28.9203 7.99119 28.7589C8.14147 28.5983 8.21661 28.3835 8.21661 28.1145C8.21661 27.8405 8.1477 27.6308 8.00726 27.4749C7.86781 27.3191 7.67454 27.2436 7.42189 27.2436C7.16923 27.2436 6.96579 27.3191 6.81486 27.4644C6.65342 27.6246 6.56844 27.851 6.56844 28.141C6.56844 28.3937 6.63734 28.603 6.78303 28.7589C6.93331 28.9203 7.13215 29.001 7.38448 29.001L7.38415 29.0017ZM7.00222 27.6364C7.10459 27.5285 7.2389 27.4747 7.40515 27.4749C7.57775 27.4749 7.70703 27.5284 7.80317 27.6364C7.89997 27.7492 7.9482 27.9097 7.9482 28.1253C7.9482 28.3294 7.90489 28.4905 7.81367 28.5981C7.72278 28.711 7.58825 28.7707 7.41073 28.7707C7.23847 28.7707 7.10459 28.711 7.00222 28.5981C6.9005 28.4849 6.85194 28.3294 6.85194 28.125C6.84144 27.9215 6.89525 27.7555 7.00222 27.6364ZM9.39294 28.8557C9.49531 28.7645 9.54945 28.6522 9.54945 28.5118C9.55063 28.4551 9.5403 28.3987 9.5191 28.3461C9.49789 28.2935 9.46625 28.2457 9.42608 28.2057C9.36078 28.141 9.26005 28.0823 9.1137 28.0232C8.98442 27.9691 8.90436 27.9212 8.86104 27.8835C8.83805 27.8611 8.81998 27.8342 8.808 27.8045C8.79602 27.7748 8.79039 27.7429 8.79148 27.7109C8.79148 27.6413 8.81872 27.5878 8.87187 27.5445C8.92601 27.5015 8.99492 27.4805 9.08745 27.4805C9.23183 27.4805 9.35619 27.5186 9.46906 27.5996V27.3306C9.35698 27.2758 9.23349 27.2485 9.10878 27.2508C8.93651 27.2508 8.79083 27.2984 8.68386 27.39C8.63077 27.431 8.58804 27.484 8.55909 27.5446C8.53014 27.6051 8.51579 27.6716 8.51717 27.7388C8.51717 27.8618 8.55425 27.9642 8.62447 28.0393C8.68353 28.1033 8.78459 28.1689 8.92536 28.2273C9.05989 28.2864 9.15078 28.3399 9.19934 28.3832C9.22192 28.4032 9.23984 28.4279 9.25186 28.4555C9.26387 28.4832 9.26969 28.5132 9.2689 28.5433C9.2689 28.6998 9.16161 28.7805 8.95226 28.7805C8.79105 28.7808 8.64579 28.7274 8.51651 28.6204V28.9098C8.63365 28.9804 8.77409 29.0122 8.92962 29.0122C9.12847 29.0017 9.28433 28.9531 9.39162 28.8563L9.39294 28.8557ZM10.672 27.2439C10.4193 27.2439 10.2159 27.3191 10.0649 27.4644C9.90481 27.6249 9.81884 27.851 9.81884 28.141C9.81884 28.3937 9.8884 28.603 10.0331 28.7589C10.184 28.9203 10.3826 29.0014 10.6352 29.0014C10.8938 29.0014 11.091 28.92 11.2419 28.7586C11.3929 28.5978 11.4683 28.3829 11.4683 28.1138C11.4683 27.8398 11.3978 27.6305 11.2583 27.4743C11.1133 27.3184 10.9197 27.2433 10.6733 27.2433L10.672 27.2439ZM11.1934 28.125C11.1934 28.3294 11.15 28.4905 11.0588 28.5981C10.9676 28.711 10.8334 28.7707 10.6559 28.7707C10.4833 28.7707 10.3497 28.711 10.2474 28.5981C10.1457 28.4849 10.0971 28.3294 10.0971 28.125C10.0971 27.9094 10.1506 27.743 10.2585 27.6308C10.3602 27.5234 10.4946 27.4696 10.6615 27.4694C10.8278 27.4694 10.9617 27.5235 11.0585 27.6308C11.1445 27.7489 11.1934 27.91 11.1934 28.125ZM11.9192 28.9636H12.1872V27.5127H12.5797V27.2869H12.1872V27.0284C12.1872 26.7928 12.2781 26.6746 12.4668 26.6746C12.5301 26.6746 12.5951 26.6907 12.643 26.7176V26.4758C12.5951 26.4541 12.5301 26.4492 12.4494 26.4492C12.305 26.4492 12.1869 26.4925 12.0898 26.5837C11.9769 26.6907 11.9172 26.8298 11.9172 27.0185V27.2932H11.6337V27.5189H11.9172V28.9643L11.9192 28.9636ZM13.0204 28.5062C13.0204 28.8344 13.1647 29.001 13.4607 29.001C13.568 29.001 13.6487 28.984 13.7134 28.9453V28.7156C13.6633 28.7521 13.6027 28.7711 13.5408 28.7697C13.4495 28.7697 13.3856 28.7481 13.3482 28.6995C13.3098 28.6513 13.2881 28.5702 13.2881 28.458V27.512H13.7134V27.2866H13.2881V26.7924C13.1959 26.8243 13.1053 26.8515 13.0194 26.8784V27.2863H12.73V27.512H13.0194V28.5059L13.0204 28.5062ZM41.856 31.5959C41.812 31.5532 41.7598 31.5198 41.7027 31.4976C41.6456 31.4754 41.5845 31.4648 41.5233 31.4666C41.3877 31.4666 41.2755 31.5099 41.1843 31.6021C41.0931 31.6927 41.0498 31.8055 41.0498 31.9348C41.0498 32.0693 41.0931 32.1809 41.1837 32.2675C41.2744 32.3537 41.3874 32.3968 41.5226 32.3968C41.6562 32.3968 41.7687 32.3538 41.8616 32.2623C41.9521 32.1704 42 32.0638 42 31.9299C41.9951 31.7944 41.9465 31.6822 41.8553 31.5962L41.856 31.5959ZM41.813 32.2305C41.7743 32.2692 41.7281 32.2997 41.6772 32.3199C41.6263 32.3401 41.5718 32.3496 41.517 32.3479C41.3999 32.3479 41.3028 32.3105 41.2214 32.2305C41.1816 32.191 41.1501 32.144 41.1289 32.0921C41.1077 32.0402 41.0972 31.9846 41.098 31.9286C41.098 31.8114 41.1351 31.7143 41.2161 31.6329C41.2962 31.5529 41.3933 31.5158 41.517 31.5158C41.6342 31.5158 41.7316 31.5529 41.813 31.6329C41.8927 31.7143 41.936 31.8114 41.936 31.9282C41.936 32.0533 41.899 32.1491 41.813 32.2305ZM41.5715 31.9565C41.6138 31.9478 41.6528 31.9273 41.684 31.8974C41.7101 31.8676 41.7235 31.8287 41.7211 31.7891C41.7213 31.7406 41.7054 31.7029 41.6732 31.6762C41.6361 31.6454 41.5764 31.6287 41.5006 31.6287H41.329V32.2298H41.4153V31.9771H41.4691C41.5059 31.9771 41.543 32.0142 41.5764 32.0844L41.6404 32.2295H41.7428L41.6627 32.0677C41.6348 31.9975 41.6027 31.9653 41.5702 31.9548L41.5715 31.9565ZM41.5121 31.9023H41.4196V31.6989H41.4954C41.5492 31.6989 41.5866 31.7087 41.6082 31.7251C41.6299 31.7415 41.6345 31.7622 41.6345 31.8006C41.6345 31.8702 41.5918 31.9023 41.5115 31.9023H41.5121ZM26.522 27.2177H26.5969V26.6156H26.796V26.5401H26.3229V26.6156H26.522V27.2177ZM26.9778 26.7649C26.9778 26.7068 26.9778 26.6589 26.9735 26.6317C26.9785 26.6635 26.9896 26.6851 26.9945 26.7012L27.2255 27.2177H27.2623L27.4943 26.696C27.5005 26.6802 27.5054 26.6592 27.5156 26.6317C27.5107 26.6851 27.5107 26.7281 27.5107 26.7609V27.217H27.5907V26.5401H27.4943L27.2846 27.0074C27.2797 27.0238 27.263 27.0566 27.2528 27.0937H27.2462C27.2423 27.072 27.2311 27.0503 27.2157 27.0136L27.006 26.5404H26.8977V27.218H26.9732V26.7659L26.9778 26.7649Z" fill="#231F1F"/>
</g>
<defs>
<linearGradient id="paint0_linear_999_201" x1="18.6065" y1="24.8924" x2="20.283" y2="23.9018" gradientUnits="userSpaceOnUse">
<stop stop-color="#909CA9"/>
<stop offset="1" stop-color="#EDEDEE"/>
</linearGradient>
<linearGradient id="paint1_linear_999_201" x1="18.645" y1="6.2158" x2="19.994" y2="6.2158" gradientUnits="userSpaceOnUse">
<stop stop-color="#939FAB"/>
<stop offset="1" stop-color="#DCDEE1"/>
</linearGradient>
<radialGradient id="paint2_radial_999_201" cx="0" cy="0" r="1" gradientUnits="userSpaceOnUse" gradientTransform="translate(25.4535 12.4009) rotate(-171.461) scale(1.74018 3.4813)">
<stop stop-color="#EE352C"/>
<stop offset="1" stop-color="#A91D22"/>
</radialGradient>
<clipPath id="clip0_999_201">
<rect width="42" height="42" fill="white"/>
</clipPath>
</defs>
</svg>
